<svg xmlns="http://www.w3.org/2000/svg" id="cash-register" width="150" height="150" viewBox="0 0 150 150">
    <defs>
        <clipPath id="clip-path">
            <path id="Shape" d="M14.063 150A14.066 14.066 0 0 1 0 135.938v-22.09a20.075 20.075 0 0 1 .176-2.666l7.47-52.236a14.068 14.068 0 0 1 13.916-12.071h25.313v-18.75H23.438a4.7 4.7 0 0 1-4.688-4.687V4.687A4.7 4.7 0 0 1 23.438 0h56.25a4.7 4.7 0 0 1 4.687 4.687v18.751a4.7 4.7 0 0 1-4.687 4.687H56.25v18.75h72.187a14.069 14.069 0 0 1 13.917 12.071l7.47 52.236a19.813 19.813 0 0 1 .176 2.637v22.119A14.066 14.066 0 0 1 135.938 150z" class="cls-1"/>
        </clipPath>
        <style>
            .cls-1{fill:#fff}
        </style>
    </defs>
    <g id="Gruppe_maskieren_1" clip-path="url(#clip-path)" data-name="Gruppe maskieren 1">
        <path id="cash-register-2" d="M67.969 72.656a4.7 4.7 0 0 0-4.688-4.688h-4.687a4.7 4.7 0 0 0-4.688 4.688v4.688a4.7 4.7 0 0 0 4.688 4.688h4.688a4.7 4.7 0 0 0 4.688-4.688zm-28.125 0a4.7 4.7 0 0 0-4.688-4.688h-4.687a4.7 4.7 0 0 0-4.688 4.688v4.688a4.7 4.7 0 0 0 4.688 4.688h4.688a4.7 4.7 0 0 0 4.688-4.688zm9.375 14.063h-4.688a4.7 4.7 0 0 0-4.688 4.688v4.688a4.7 4.7 0 0 0 4.688 4.688h4.688a4.7 4.7 0 0 0 4.688-4.688v-4.689a4.7 4.7 0 0 0-4.688-4.687zm28.125 0h-4.688a4.7 4.7 0 0 0-4.688 4.688v4.688a4.7 4.7 0 0 0 4.688 4.688h4.688a4.7 4.7 0 0 0 4.688-4.688v-4.689a4.7 4.7 0 0 0-4.688-4.687zm18.75-14.063a4.7 4.7 0 0 0-4.688-4.688h-4.687a4.7 4.7 0 0 0-4.688 4.688v4.688a4.7 4.7 0 0 0 4.688 4.688h4.688a4.7 4.7 0 0 0 4.688-4.688zm53.731 38.525l-7.471-52.236a14.068 14.068 0 0 0-13.916-12.07H56.25v-18.75h23.438a4.7 4.7 0 0 0 4.688-4.688V4.688A4.7 4.7 0 0 0 79.688 0h-56.25a4.7 4.7 0 0 0-4.688 4.688v18.75a4.7 4.7 0 0 0 4.688 4.688h23.437v18.75H21.563A14.068 14.068 0 0 0 7.646 58.945l-7.47 52.237A20.041 20.041 0 0 0 0 113.848v22.09A14.066 14.066 0 0 0 14.063 150h121.875A14.066 14.066 0 0 0 150 135.938v-22.119a19.929 19.929 0 0 0-.175-2.637zM28.125 18.75V9.375H75v9.375zM16.934 60.264a4.7 4.7 0 0 1 4.629-4.014h106.845a4.7 4.7 0 0 1 4.629 4.014l7.5 52.236H9.463zm123.692 75.674a4.7 4.7 0 0 1-4.688 4.688H14.063a4.7 4.7 0 0 1-4.688-4.688v-14.063h131.25zm-21.095-67.969h-4.688a4.7 4.7 0 0 0-4.688 4.688v4.688a4.7 4.7 0 0 0 4.688 4.688h4.688a4.7 4.7 0 0 0 4.688-4.688v-4.689a4.7 4.7 0 0 0-4.688-4.687zm-14.063 18.75h-4.688a4.7 4.7 0 0 0-4.688 4.688v4.688a4.7 4.7 0 0 0 4.688 4.688h4.688a4.7 4.7 0 0 0 4.688-4.688v-4.689a4.7 4.7 0 0 0-4.687-4.687z" class="cls-1" data-name="cash-register"/>
    </g>
</svg>
