<svg xmlns="http://www.w3.org/2000/svg" width="150" height="150" viewBox="0 0 150 150">
    <defs>
        <filter id="prefix__a">
            <feColorMatrix in="SourceGraphic" values="0 0 0 0 1.000000 0 0 0 0 1.000000 0 0 0 0 1.000000 0 0 0 1.000000 0"/>
        </filter>
    </defs>
    <g fill="none" fill-rule="evenodd" filter="url(#prefix__a)" transform="translate(-113 -240)">
        <path fill="#000" fill-rule="nonzero" d="M261.65 282.428l-4.062-3.675c-.678-.892-1.577-1.337-2.71-1.337-1.132 0-2.03.445-2.709 1.337l-95.148 93.541-33.524-33.074c-.679-.891-1.577-1.336-2.71-1.336-1.132 0-2.03.445-2.709 1.336l-4.062 3.675c-.679.892-1.016 1.895-1.016 3.007s.337 2.004 1.016 2.673l40.296 39.755c.898.892 1.86 1.336 2.88 1.336 1.018 0 1.977-.444 2.88-1.336l101.582-100.223c.678-.668 1.015-1.56 1.015-2.673 0-1.112-.34-2.114-1.019-3.006zm-106.166 41.77c.886.884 1.831 1.325 2.83 1.325.999 0 1.944-.44 2.83-1.326l73.797-73.573c.665-.669.999-1.554.999-2.66 0-1.105-.334-2.101-.999-2.986l-3.996-3.652c-.664-.885-1.55-1.326-2.662-1.326-1.113 0-1.998.441-2.663 1.326l-67.473 66.939-24.137-24.063c-.665-.886-1.55-1.327-2.663-1.327-1.112 0-1.997.441-2.662 1.327l-3.996 3.651c-.665.885-.999 1.88-.999 2.987 0 1.105.334 1.99 1 2.656l30.794 30.701z"/>
    </g>
</svg>
