<svg xmlns="http://www.w3.org/2000/svg" width="23" height="23" viewBox="0 0 23 23">
    <path fill-rule="evenodd" d="M1.366.173L11 9.76 20.634.173c.207-.205.527-.228.759-.068l.082.068.35.349c.233.231.233.606 0 .837l-8.846 8.803c-.855.838-.707.838 0 1.676l8.847 8.803c.232.231.232.606 0 .837l-.35.349c-.233.23-.61.23-.842 0L11 12.239l-9.634 9.588c-.233.23-.61.23-.841 0l-.35-.349c-.233-.231-.233-.606 0-.837l8.846-8.803c.707-.838.855-.838 0-1.676L.174 1.359c-.232-.231-.232-.606 0-.837l.35-.349c.233-.23.61-.23.842 0z"/>
</svg>
