<svg xmlns="http://www.w3.org/2000/svg" id="envelope-open-dollar" width="150.001" height="150.001" viewBox="0 0 150.001 150.001">
    <g id="Icons_credit" data-name="Icons/credit">
        <path id="Shape" fill="#fff" d="M140.625 150H9.376A9.386 9.386 0 0 1 0 140.625V93.751a9.386 9.386 0 0 1 9.376-9.376h9.374a60.932 60.932 0 0 1 99.343-66.53 60.94 60.94 0 0 1 13.157 66.53h9.376A9.386 9.386 0 0 1 150 93.751v46.874a9.386 9.386 0 0 1-9.375 9.375zM9.376 93.751v46.874h131.249V93.751H126.3a61.568 61.568 0 0 1-18.928 18.749h12.159a2.347 2.347 0 0 1 2.345 2.345v4.687a2.347 2.347 0 0 1-2.345 2.345H30.469a2.347 2.347 0 0 1-2.344-2.345v-4.687a2.347 2.347 0 0 1 2.344-2.345h12.157A61.553 61.553 0 0 1 23.7 93.751zM75 9.376a51.562 51.562 0 1 0 51.563 51.561A51.619 51.619 0 0 0 75 9.376zm2.374 89.062h-4.688a2.347 2.347 0 0 1-2.344-2.344v-7.032h-.41a20.523 20.523 0 0 1-12.568-4.248 2.461 2.461 0 0 1-.964-1.789 2.278 2.278 0 0 1 .672-1.784L60.41 77.9a2.36 2.36 0 0 1 1.685-.733 1.994 1.994 0 0 1 1.186.382 11.227 11.227 0 0 0 6.622 2.14h10.809a6 6 0 0 0 1.642-11.779l-16.523-4.716c-6.514-1.856-11.271-7.3-11.837-13.536a15.383 15.383 0 0 1 15.293-16.846h1.026v-7.031a2.346 2.346 0 0 1 2.345-2.342h4.687a2.346 2.346 0 0 1 2.345 2.342v7h.41a20.532 20.532 0 0 1 12.568 4.248 2.466 2.466 0 0 1 .964 1.791 2.282 2.282 0 0 1-.672 1.785l-3.34 3.34a2.362 2.362 0 0 1-1.686.735 1.984 1.984 0 0 1-1.185-.384 11.25 11.25 0 0 0-6.622-2.138H69.316a6 6 0 0 0-1.64 11.777l17.314 4.952a15.49 15.49 0 0 1 9.386 7.713 15.331 15.331 0 0 1 .9 12.152 14.788 14.788 0 0 1-5.882 7.529 16.871 16.871 0 0 1-9.265 2.783h-.41v7.031a2.347 2.347 0 0 1-2.346 2.343z"/>
    </g>
</svg>
