<?xml version="1.0" encoding="UTF-8"?><svg version="1.1" viewBox="0 0 576 512" xmlns="http://www.w3.org/2000/svg" xmlns:xlink="http://www.w3.org/1999/xlink"><!--Generated by IJSVG (https://github.com/iconjar/IJSVG)--><path d="M270.2,160h35.5c3.4,0 6.1,2.8 6,6.2l-7.5,196c-0.1,3.2 -2.8,5.8 -6,5.8h-20.5c-3.2,0 -5.9,-2.5 -6,-5.8l-7.5,-196c-0.1,-3.4 2.6,-6.2 6,-6.2Zm17.8,228c-15.5,0 -28,12.5 -28,28c0,15.5 12.5,28 28,28c15.5,0 28,-12.5 28,-28c0,-15.5 -12.5,-28 -28,-28Zm281.5,52l-239.9,-416c-18.4,-32 -64.7,-32 -83.2,0l-239.9,416c-18.4,31.9 4.6,72 41.6,72h479.9c36.8,0 60,-40 41.5,-72Zm-41.5,40h-480c-12.3,0 -20,-13.3 -13.9,-24l240,-416c6.1,-10.6 21.6,-10.7 27.7,0l240,416c6.2,10.6 -1.5,24 -13.8,24Z" fill="#000"></path></svg>