<svg xmlns="http://www.w3.org/2000/svg" xmlns:xlink="http://www.w3.org/1999/xlink" width="20" height="17.502" viewBox="0 0 20 17.502">
<linearGradient id="a" x1="0.215" x2="1" y2="1" gradientUnits="objectBoundingBox">
<stop offset="0" stop-color="#ff96e3"/>
<stop offset="0.493" stop-color="#c971ff"/>
<stop offset="1" stop-color="#9774ff"/>
</linearGradient>
<path fill="url(#a)" d="M51.937,39.715l-2.383-1.947V34.744a.234.234,0,0,0-.234-.234h-.781a.234.234,0,0,0-.234.234v2.005l-5.462-4.458a1.256,1.256,0,0,0-1.578,0l-9.1,7.424a.313.313,0,0,0-.045.439l.395.485a.313.313,0,0,0,.438.046l1.6-1.3v9.493a.625.625,0,0,0,.625.625h5a.625.625,0,0,0,.625-.625v-5l2.5.012v5a.625.625,0,0,0,.625.625l5-.013a.625.625,0,0,0,.625-.625v-9.5l1.6,1.3a.313.313,0,0,0,.44-.045l.395-.485a.313.313,0,0,0-.047-.44ZM48.3,48.254h0l-3.75.012V43.259a.627.627,0,0,0-.623-.625l-3.75-.011a.625.625,0,0,0-.627.625v5.006H35.8V38.361l6.251-5.1,6.251,5.1Z" transform="translate(-32.054 -32.013)"/>
</svg>