<svg xmlns="http://www.w3.org/2000/svg" width="65" height="66" viewBox="0 0 65 66">
    <defs>
        <linearGradient id="3n43atg1ja" x1="21.46%" x2="100%" y1="0%" y2="100%">
            <stop offset="0%" stop-color="#FF96E3"/>
            <stop offset="49.268%" stop-color="#C971FF"/>
            <stop offset="100%" stop-color="#9774FF"/>
            <stop offset="100%" stop-color="#9774FF"/>
        </linearGradient>
    </defs>
    <g fill="none" fill-rule="evenodd" transform="translate(0 .5)">
        <rect width="54" height="54" x="6" y="6" fill="url(#3n43atg1ja)" rx="10" transform="rotate(-13 33 33)"/>
        <path fill="#FFF" d="M17.514 29.03c0-.892.724-1.616 1.616-1.616H32.6v-9.193c0-.254.153-.483.388-.58.235-.098.506-.044.685.136l13.541 13.522c.304.303.475.714.475 1.143 0 .43-.171.841-.475 1.144l-13.54 13.52c-.18.18-.45.234-.685.138-.235-.097-.388-.326-.389-.58v-9.193H19.13c-.428 0-.84-.17-1.143-.473-.303-.303-.473-.715-.473-1.144V29.03m-2.514 0v6.824c.002 2.28 1.85 4.13 4.13 4.132h10.956v6.678c0 2.79 3.378 4.204 5.364 2.224l13.538-13.52c.776-.775 1.212-1.827 1.212-2.924 0-1.096-.436-2.148-1.212-2.922L35.45 15.999c-1.974-1.972-5.364-.578-5.364 2.222V24.9H19.13c-2.28.003-4.127 1.85-4.13 4.13z"/>
    </g>
</svg>
