<svg xmlns="http://www.w3.org/2000/svg" id="Icons_arrow-alt-right" width="36" height="35" data-name="Icons/arrow-alt-right" viewBox="0 0 36 35">
    <path id="Shape" fill="#fff" d="M18.253 34.737a3.243 3.243 0 0 1-2.19-.866 3.086 3.086 0 0 1-.977-2.283V24.91H4.13A4.141 4.141 0 0 1 0 20.779v-6.824a4.142 4.142 0 0 1 4.13-4.13h10.956V3.146a3.082 3.082 0 0 1 .978-2.284A3.246 3.246 0 0 1 18.253 0a3.1 3.1 0 0 1 2.2.923l13.535 13.523a4.1 4.1 0 0 1 1.212 2.923 4.153 4.153 0 0 1-1.212 2.922L20.45 33.812a3.059 3.059 0 0 1-2.197.925zM4.13 12.339a1.617 1.617 0 0 0-1.615 1.616v6.825a1.626 1.626 0 0 0 .473 1.143 1.606 1.606 0 0 0 1.142.477H17.6v9.193a.628.628 0 0 0 1.073.443L32.215 18.51a1.607 1.607 0 0 0 .474-1.144 1.628 1.628 0 0 0-.474-1.143L18.673 2.7a.629.629 0 0 0-1.073.445v9.193z" transform="translate(0 .076)"/>
</svg>
