<svg height="20" viewBox="0 0 20 20" width="20" xmlns="http://www.w3.org/2000/svg" xmlns:xlink="http://www.w3.org/1999/xlink"><linearGradient id="a" gradientUnits="objectBoundingBox" x1=".5" x2=".5" y2="1"><stop offset="0" stop-color="#ff96e3"/><stop offset=".493" stop-color="#c971ff"/><stop offset="1" stop-color="#9774ff"/></linearGradient><path d="m18.246 1.754a5.762 5.762 0 0 0 -4.121-1.754 8.254 8.254 0 0 0 -5.732 2.76l-3.35 3.349c-3.1 3.1-2.806 8.23-2.091 10.055l-2.769 2.768a.626.626 0 0 0 .885.885l2.771-2.771a9.048 9.048 0 0 0 3.095.472 9.832 9.832 0 0 0 6.957-2.561l3.349-3.349c3.539-3.54 3.45-7.408 1.006-9.854zm-12.318 5.24 3.349-3.349a7.068 7.068 0 0 1 4.848-2.393 4.513 4.513 0 0 1 3.236 1.387c1.653 1.653 1.787 3.91.513 6.121h-5.748l1.454-1.46a.626.626 0 0 0 -.88-.88l-8.747 8.742c-.387-1.693-.52-5.674 1.975-8.169zm1.005 9.273a8.939 8.939 0 0 1 -2.089-.226l2.295-2.295 6.179.014-.312.312a8.662 8.662 0 0 1 -6.073 2.195zm7.632-3.754h-6.193l2.5-2.5h6.107c-.197.236-2.413 2.5-2.413 2.5z" fill="url(#a)"/></svg>