<svg height="20" viewBox="0 0 20 20" width="20" xmlns="http://www.w3.org/2000/svg" xmlns:xlink="http://www.w3.org/1999/xlink"><linearGradient id="a" gradientUnits="objectBoundingBox" x1=".215" x2="1" y2="1"><stop offset="0" stop-color="#ff96e3"/><stop offset=".493" stop-color="#c971ff"/><stop offset="1" stop-color="#9774ff"/></linearGradient><path d="m20 20h-1.429v-1.428h1.429zm-2.858 0h-1.427v-1.428h1.428v1.428zm-4.286 0h-1.428v-8.572h4.286v1.429h2.857v-1.429h1.429v5.714h-5.714v-1.427h-1.429v4.285zm-4.285 0h-8.571v-8.572h8.571zm-7.142-7.143v5.714h5.714v-5.714zm4.286 4.286h-2.858v-2.857h2.857v2.856zm14.285-8.572h-8.572v-8.571h8.572zm-7.143-7.142v5.714h5.714v-5.714zm-4.286 7.142h-8.571v-8.571h8.571zm-7.142-7.142v5.714h5.714v-5.714zm15.714 4.285h-2.857v-2.857h2.857zm-11.428 0h-2.858v-2.857h2.857v2.857z" fill="url(#a)"/></svg>