<svg xmlns="http://www.w3.org/2000/svg" id="Icons_qrcode" width="24" height="24" data-name="Icons/qrcode" viewBox="0 0 24 24">
    <g id="qrcode">
        <path id="Shape" fill="#373737" d="M24 24h-1.714v-1.714H24V24zm-3.429 0h-1.714v-1.714h1.714V24zm-5.143 0h-1.714V13.714h5.143v1.714h3.428v-1.714H24v6.857h-6.857v-1.714h-1.715V24zm-5.143 0H0V13.714h10.286V24zm-8.571-8.572v6.857h6.857v-6.857zm5.143 5.143H3.428v-3.428h3.429v3.428zM24 10.286H13.714V0H24v10.285zm-8.572-8.571v6.856h6.857V1.715zm-5.143 8.571H0V0h10.286v10.285zM1.714 1.715v6.856h6.857V1.715zm18.857 5.142h-3.428V3.428h3.428v3.429zm-13.714 0H3.428V3.428h3.429v3.429z"/>
    </g>
</svg>
