<svg height="20" viewBox="0 0 20 20" width="20" xmlns="http://www.w3.org/2000/svg" xmlns:xlink="http://www.w3.org/1999/xlink"><linearGradient id="a" gradientUnits="objectBoundingBox" x1=".215" x2="1" y2="1"><stop offset="0" stop-color="#ff96e3"/><stop offset=".493" stop-color="#c971ff"/><stop offset="1" stop-color="#9774ff"/></linearGradient><path d="m18.333 13.333h-16.666a1.669 1.669 0 0 1 -1.667-1.666v-10a1.669 1.669 0 0 1 1.667-1.667h16.666a1.669 1.669 0 0 1 1.667 1.667v10a1.669 1.669 0 0 1 -1.667 1.666zm-16.666-12.222a.556.556 0 0 0 -.556.556v10a.556.556 0 0 0 .556.556h16.666a.556.556 0 0 0 .556-.556v-10a.556.556 0 0 0 -.556-.556zm15.416 9.167h-.833a.417.417 0 0 1 -.417-.417v-.833a.417.417 0 0 1 .417-.417h.833a.417.417 0 0 1 .417.417v.833a.417.417 0 0 1 -.417.417zm-13.333 0h-.833a.417.417 0 0 1 -.417-.417v-.833a.417.417 0 0 1 .417-.417h.833a.417.417 0 0 1 .417.417v.833a.417.417 0 0 1 -.417.417zm10-.278h-7.5a.417.417 0 0 1 -.417-.417v-.277a.417.417 0 0 1 .417-.417h7.5a.417.417 0 0 1 .417.417v.278a.417.417 0 0 1 -.417.416zm1.667-2.5h-.833a.417.417 0 0 1 -.417-.417v-.833a.417.417 0 0 1 .417-.417h.833a.417.417 0 0 1 .417.417v.833a.417.417 0 0 1 -.417.417zm-3.333 0h-.834a.417.417 0 0 1 -.417-.417v-.833a.417.417 0 0 1 .417-.417h.833a.417.417 0 0 1 .417.417v.833a.417.417 0 0 1 -.417.417zm-3.334 0h-.833a.417.417 0 0 1 -.417-.417v-.833a.417.417 0 0 1 .417-.417h.833a.417.417 0 0 1 .417.417v.833a.417.417 0 0 1 -.417.417zm-3.333 0h-.834a.417.417 0 0 1 -.417-.417v-.833a.417.417 0 0 1 .417-.417h.833a.417.417 0 0 1 .416.417v.833a.417.417 0 0 1 -.415.417zm11.666-2.778h-.833a.417.417 0 0 1 -.417-.417v-.833a.417.417 0 0 1 .417-.417h.833a.417.417 0 0 1 .417.417v.833a.417.417 0 0 1 -.417.417zm-3.333 0h-.833a.417.417 0 0 1 -.417-.417v-.833a.417.417 0 0 1 .417-.417h.833a.417.417 0 0 1 .417.417v.833a.417.417 0 0 1 -.417.417zm-3.333 0h-.834a.417.417 0 0 1 -.416-.417v-.833a.417.417 0 0 1 .416-.417h.833a.417.417 0 0 1 .417.417v.833a.417.417 0 0 1 -.416.417zm-3.333 0h-.834a.417.417 0 0 1 -.417-.417v-.833a.417.417 0 0 1 .417-.417h.833a.417.417 0 0 1 .417.417v.833a.417.417 0 0 1 -.417.417zm-3.333 0h-.834a.417.417 0 0 1 -.417-.416v-.834a.417.417 0 0 1 .417-.417h.833a.417.417 0 0 1 .417.417v.833a.417.417 0 0 1 -.417.417z" fill="url(#a)" transform="translate(0 3.333)"/></svg>