<svg height="24" viewBox="0 0 24 24" width="24" xmlns="http://www.w3.org/2000/svg"><path d="m24 24h-1.714v-1.714h1.714zm-3.429 0h-1.714v-1.714h1.714zm-5.143 0h-1.714v-10.286h5.143v1.714h3.428v-1.714h1.715v6.857h-6.857v-1.714h-1.715zm-5.143 0h-10.285v-10.286h10.286v10.286zm-8.571-8.572v6.857h6.857v-6.857zm5.143 5.143h-3.429v-3.428h3.429zm17.143-10.285h-10.286v-10.286h10.286v10.285zm-8.572-8.571v6.856h6.857v-6.856zm-5.143 8.571h-10.285v-10.286h10.286v10.285zm-8.571-8.571v6.856h6.857v-6.856zm18.857 5.142h-3.428v-3.429h3.428zm-13.714 0h-3.429v-3.429h3.429z" fill="#373737"/></svg>