<svg height="35" viewBox="0 0 36 35" width="36" xmlns="http://www.w3.org/2000/svg"><path d="m30.927 34.216h-24.3c-3.654 0-6.627-3.29-6.627-7.332v-19.552c0-4.043 2.973-7.332 6.627-7.332h20.987a3.507 3.507 0 0 1 3.314 3.666v1.222h1.1a3.507 3.507 0 0 1 3.314 3.666v20.774a4.676 4.676 0 0 1 -4.415 4.888zm-24.3-31.772a4.676 4.676 0 0 0 -4.418 4.888v19.552a4.676 4.676 0 0 0 4.418 4.888h24.3a2.338 2.338 0 0 0 2.209-2.444v-20.774a1.169 1.169 0 0 0 -1.1-1.222h-24.304a1.169 1.169 0 0 1 -1.1-1.222 1.169 1.169 0 0 1 1.1-1.222h20.986v-1.222a1.169 1.169 0 0 0 -1.1-1.222zm19.882 19.556a2.338 2.338 0 0 1 -2.209-2.448 2.22 2.22 0 1 1 4.418 0 2.338 2.338 0 0 1 -2.209 2.448z" fill="#fff"/></svg>