<svg height="104.936" viewBox="0 0 145.031 104.936" width="145.031" xmlns="http://www.w3.org/2000/svg"><g style="opacity:.33;fill:none;stroke:#fff;stroke-linecap:round;stroke-linejoin:round;stroke-miterlimit:10;stroke-width:3" transform="translate(1.289 1.5)"><path d="m0 9.023a4.48 4.48 0 0 0 4.441-4.512 4.48 4.48 0 0 0 -4.441-4.511" transform="translate(13.554 78.409)"/><path d="m0 0a4.255 4.255 0 0 0 4.273 4.231 4.255 4.255 0 0 0 4.272-4.231" transform="translate(77 23)"/><path d="m2.015 12.762v-12.762" transform="translate(105.374 15)"/><path d="m14.387 2.015h-13.715" transform="translate(100 19.03)"/><path d="m2.211 11.307v-11.307" transform="matrix(.70710678 .70710678 -.70710678 .70710678 28.58580212166 21.16995912166)"/><path d="m11.848 1.785h-11.314" transform="matrix(.70710678 .70710678 -.70710678 .70710678 23.30512868862 20.93944231138)"/><path d="m2.211 11.307v-11.307" transform="matrix(.70710678 .70710678 -.70710678 .70710678 134.24028812166 91.75546512166)"/><path d="m11.848 1.785h-11.314" transform="matrix(.70710678 .70710678 -.70710678 .70710678 128.95961468862 91.52494831138)"/><path d="m14.242 7.052a7.121 7.121 0 0 0 -14.242 0 7.121 7.121 0 0 0 14.242 0z" transform="translate(128 36)"/><path d="m14.242 7.052a7.121 7.121 0 0 0 -14.242 0 7.121 7.121 0 0 0 14.242 0z" transform="translate(.211 43.702)"/><path d="m14.242 7.052a7.121 7.121 0 0 0 -14.242 0 7.121 7.121 0 0 0 14.242 0z" transform="translate(50)"/><path d="m8.545 4.231a4.273 4.273 0 0 0 -8.545 0" transform="translate(122 67)"/></g></svg>