<svg xmlns="http://www.w3.org/2000/svg" id="Icons_arrow-alt-right" width="36" height="35" data-name="Icons/arrow-alt-right" viewBox="0 0 36 35">
    <defs>
        <linearGradient id="linear-gradient" x1=".142" x2="1" y2="1" gradientUnits="objectBoundingBox">
            <stop offset="0" stop-color="#7dff7b"/>
            <stop offset=".374" stop-color="#24e8ba"/>
            <stop offset="1" stop-color="#20dbe0"/>
            <stop offset="1" stop-color="#03cf80"/>
        </linearGradient>
    </defs>
    <g id="wallet_Icon" data-name="wallet Icon">
        <path id="Shape" fill="url(#linear-gradient)" d="M30.927 34.216h-24.3C2.973 34.216 0 30.926 0 26.884V7.332C0 3.289 2.973 0 6.627 0h20.987a3.507 3.507 0 0 1 3.314 3.666v1.222h1.1a3.507 3.507 0 0 1 3.314 3.666v20.774a4.676 4.676 0 0 1-4.415 4.888zM6.627 2.444a4.676 4.676 0 0 0-4.418 4.888v19.552a4.676 4.676 0 0 0 4.418 4.888h24.3a2.338 2.338 0 0 0 2.209-2.444V8.554a1.169 1.169 0 0 0-1.1-1.222H7.732a1.169 1.169 0 0 1-1.1-1.222 1.169 1.169 0 0 1 1.1-1.222h20.986V3.666a1.169 1.169 0 0 0-1.1-1.222zM26.509 22a2.338 2.338 0 0 1-2.209-2.448 2.22 2.22 0 1 1 4.418 0A2.338 2.338 0 0 1 26.509 22z"/>
    </g>
</svg>
