<svg height="35" viewBox="0 0 36 35" width="36" xmlns="http://www.w3.org/2000/svg"><path d="m6.731 34.306a2.022 2.022 0 0 1 -1.662-1l-4.5-6.712a3.742 3.742 0 0 1 0-3.964l4.5-6.712a2.021 2.021 0 0 1 1.661-1c1.116-.003 2.27 1.113 2.27 2.982v5.22h26.156c.465 0 .844.5.844 1.119v.745c0 .617-.379 1.119-.844 1.119h-26.156v5.22c0 1.867-1.154 2.983-2.269 2.983zm.019-16.406-4.5 6.712 4.5 6.712zm22.52 1.493c-1.116 0-2.27-1.116-2.27-2.985v-5.22h-26.157c-.465 0-.843-.5-.843-1.119v-.746c0-.617.378-1.123.843-1.123h26.157v-5.216c0-1.868 1.154-2.984 2.27-2.984a2.022 2.022 0 0 1 1.662 1l4.5 6.712a3.742 3.742 0 0 1 0 3.964l-4.5 6.712a2.022 2.022 0 0 1 -1.662 1.004zm-.02-16.409v13.423l4.5-6.707z" fill="#fff" transform="translate(0 .092)"/></svg>