<svg height="35" viewBox="0 0 36 35" width="36" xmlns="http://www.w3.org/2000/svg"><path d="m34 34.33h-20a2.079 2.079 0 0 1 -2-2.145v-12.874a2.079 2.079 0 0 1 2-2.146h20a2.08 2.08 0 0 1 2 2.146v12.873a2.079 2.079 0 0 1 -2 2.146zm-20-15.019v12.873h20v-12.873zm-4 12.873h-8a2.079 2.079 0 0 1 -2-2.146v-17.164a2.079 2.079 0 0 1 2-2.145h6v-4.292a6.237 6.237 0 0 1 6-6.437 6.237 6.237 0 0 1 6 6.437v4.292h6a2.079 2.079 0 0 1 2 2.145v2.145h-2v-2.145h-24v17.164h8v2.145zm4-30.039a4.158 4.158 0 0 0 -4 4.292v4.292h8v-4.292a4.158 4.158 0 0 0 -4-4.292zm9.993 27.893a5.637 5.637 0 0 1 -.782-.055 5.742 5.742 0 0 1 -3.739-2.232 7.155 7.155 0 0 1 -1.472-4.374v-1.385a.52.52 0 0 1 .5-.537h1a.52.52 0 0 1 .5.537v1.419a4.341 4.341 0 0 0 3.6 4.461 3.746 3.746 0 0 0 .394.021 3.85 3.85 0 0 0 2.687-1.11 4.449 4.449 0 0 0 1.319-3.183v-1.608a.52.52 0 0 1 .5-.537h1a.52.52 0 0 1 .5.537v1.608a6.656 6.656 0 0 1 -2.048 4.84 5.775 5.775 0 0 1 -3.959 1.598z" fill="#fff"/></svg>