<svg xmlns="http://www.w3.org/2000/svg" xmlns:xlink="http://www.w3.org/1999/xlink" id="Icons_SendMoney" width="40" height="40" data-name="Icons/SendMoney" viewBox="0 0 40 40">
    <defs>
        <linearGradient id="linear-gradient" x1=".215" x2="1" y1="1" gradientUnits="objectBoundingBox">
            <stop offset="0" stop-color="#ff96e3"/>
            <stop offset=".493" stop-color="#c971ff"/>
            <stop offset="1" stop-color="#9774ff"/>
        </linearGradient>
        <linearGradient id="linear-gradient-2" x1=".215" y1="0" y2="1" xlink:href="#linear-gradient"/>
    </defs>
    <g id="sign-in-alt" transform="rotate(90 16 16.333)">
        <path id="Shape" fill="url(#linear-gradient)" d="M12.866 0a2.665 2.665 0 0 0-1.789.7 2.484 2.484 0 0 0-.8 1.846v3.935H3.083A3.071 3.071 0 0 0 0 9.532v4.938a3.071 3.071 0 0 0 3.083 3.05h7.195v3.934a2.482 2.482 0 0 0 .8 1.847 2.666 2.666 0 0 0 1.789.7 2.538 2.538 0 0 0 1.792-.746l9.1-9.095a3.032 3.032 0 0 0 0-4.322l-9.1-9.09A2.505 2.505 0 0 0 12.866 0zM3.034 15.5A1.028 1.028 0 0 1 2 14.479V9.523A1.028 1.028 0 0 1 3.034 8.5h9.3V2.513a.515.515 0 0 1 .878-.364l9.147 9.127a1.011 1.011 0 0 1 0 1.448l-9.147 9.127a.5.5 0 0 1-.357.148.518.518 0 0 1-.521-.511V15.5z"/>
    </g>
    <path id="Rectangle" fill="#f7f7f7" d="M0 0h23.333v3.8h2.859v17.819L23.333 22H0z" transform="translate(6.667 16.667)"/>
    <g id="wallet" transform="translate(6 16)">
        <path id="Shape-2" fill="url(#linear-gradient-2)" d="M24.5 24H5.25A5.2 5.2 0 0 1 0 18.857V5.143A5.2 5.2 0 0 1 5.25 0h16.625A2.6 2.6 0 0 1 24.5 2.572v.857h.875A2.6 2.6 0 0 1 28 6v14.572A3.469 3.469 0 0 1 24.5 24zM5.25 1.714a3.469 3.469 0 0 0-3.5 3.428v13.715a3.469 3.469 0 0 0 3.5 3.428H24.5a1.734 1.734 0 0 0 1.75-1.714V6a.867.867 0 0 0-.875-.857H6.125a.857.857 0 1 1 0-1.714H22.75v-.857a.868.868 0 0 0-.875-.857zM21 15.428a1.715 1.715 0 1 1 1.75-1.714A1.734 1.734 0 0 1 21 15.428z" data-name="Shape"/>
    </g>
</svg>
