<svg xmlns="http://www.w3.org/2000/svg" id="Icons_SendMoney" width="40" height="40" data-name="Icons/SendMoney" viewBox="0 0 40 40">
    <defs>
        <linearGradient id="linear-gradient" x1=".215" x2="1" y2="1" gradientUnits="objectBoundingBox">
            <stop offset="0" stop-color="#ff96e3"/>
            <stop offset=".493" stop-color="#c971ff"/>
            <stop offset="1" stop-color="#9774ff"/>
        </linearGradient>
    </defs>
    <path id="Shape" fill="url(#linear-gradient)" d="M37.5 40h-35A2.5 2.5 0 0 1 0 37.5V25a2.5 2.5 0 0 1 2.5-2.5H5A16.249 16.249 0 0 1 31.491 4.759 16.251 16.251 0 0 1 35 22.5h2.5A2.5 2.5 0 0 1 40 25v12.5a2.5 2.5 0 0 1-2.5 2.5zm-35-15v12.5h35V25h-3.82a16.418 16.418 0 0 1-5.047 5h3.242a.626.626 0 0 1 .625.625v1.25a.626.626 0 0 1-.625.625H8.125a.626.626 0 0 1-.625-.625v-1.25A.626.626 0 0 1 8.125 30h3.242a16.414 16.414 0 0 1-5.047-5zM20 2.5a13.75 13.75 0 1 0 13.75 13.75A13.765 13.765 0 0 0 20 2.5zm.633 23.75h-1.25a.626.626 0 0 1-.625-.625V23.75h-.109a5.473 5.473 0 0 1-3.349-1.133.656.656 0 0 1-.257-.477.607.607 0 0 1 .179-.476l.89-.891a.629.629 0 0 1 .449-.2.532.532 0 0 1 .316.1 2.994 2.994 0 0 0 1.766.571h2.882a1.6 1.6 0 0 0 .438-3.141l-4.406-1.258a4.269 4.269 0 0 1-3.157-3.61 4.1 4.1 0 0 1 4.076-4.485h.274V6.875a.626.626 0 0 1 .625-.625h1.25a.626.626 0 0 1 .625.625v1.867h.109a5.475 5.475 0 0 1 3.352 1.133.658.658 0 0 1 .257.477.608.608 0 0 1-.179.476l-.89.89a.63.63 0 0 1-.449.2.529.529 0 0 1-.316-.1 3 3 0 0 0-1.766-.57h-2.884a1.6 1.6 0 0 0-.437 3.14l4.617 1.312a4.131 4.131 0 0 1 2.5 2.056A4.088 4.088 0 0 1 25.406 21a3.943 3.943 0 0 1-1.568 2.008 4.5 4.5 0 0 1-2.471.742h-.109v1.875a.626.626 0 0 1-.625.625z"/>
</svg>
