<?xml version="1.0" encoding="UTF-8"?>
<svg width="190px" height="190px" viewBox="0 0 190 190" version="1.1" xmlns="http://www.w3.org/2000/svg" xmlns:xlink="http://www.w3.org/1999/xlink">
            <g id="Group">
                <polygon id="Path" points="60.979 0 68.979 0 68.979 8 60.979 8" fill="#FFFFFF" fill-opacity="0.2"></polygon>
                <polygon id="Path" points="68.485 0 76.485 0 76.485 8 68.485 8" fill="#FFFFFF" fill-opacity="0.2"></polygon>
                <polygon id="Path" points="75.99 0 83.99 0 83.99 8 75.99 8" fill="#FFFFFF" fill-opacity="0.2"></polygon>
                <polygon id="Path" points="83.495 0 91.495 0 91.495 8 83.495 8" fill="#FFFFFF" fill-opacity="0.2"></polygon>
                <polygon id="Path" points="91 0 99 0 99 8 91 8" fill="#FFFFFF" fill-opacity="0.2"></polygon>
                <polygon id="Path" points="68.485 8 76.485 8 76.485 16 68.485 16" fill="#FFFFFF" fill-opacity="0.2"></polygon>
                <polygon id="Path" points="75.99 8 83.99 8 83.99 16 75.99 16" fill="#FFFFFF" fill-opacity="0.2"></polygon>
                <polygon id="Path" points="83.495 8 91.495 8 91.495 16 83.495 16" fill="#FFFFFF" fill-opacity="0.2"></polygon>
                <polygon id="Path" points="91 8 99 8 99 16 91 16" fill="#FFFFFF" fill-opacity="0.2"></polygon>
                <polygon id="Path" points="121.021 8 129.021 8 129.021 16 121.021 16" fill="#FFFFFF" fill-opacity="0.2"></polygon>
                <polygon id="Path" points="75.99 16 83.99 16 83.99 24 75.99 24" fill="#FFFFFF" fill-opacity="0.2"></polygon>
                <polygon id="Path" points="91 16 99 16 99 24 91 24" fill="#FFFFFF" fill-opacity="0.2"></polygon>
                <polygon id="Path" points="98.505 16 106.505 16 106.505 24 98.505 24" fill="#FFFFFF" fill-opacity="0.2"></polygon>
                <polygon id="Path" points="113.515 16 121.515 16 121.515 24 113.515 24" fill="#FFFFFF" fill-opacity="0.2"></polygon>
                <polygon id="Path" points="121.021 16 129.021 16 129.021 24 121.021 24" fill="#FFFFFF" fill-opacity="0.2"></polygon>
                <polygon id="Path" points="60.979 24 68.979 24 68.979 32 60.979 32" fill="#FFFFFF" fill-opacity="0.2"></polygon>
                <polygon id="Path" points="75.99 24 83.99 24 83.99 32 75.99 32" fill="#FFFFFF" fill-opacity="0.2"></polygon>
                <polygon id="Path" points="106.01 24 114.01 24 114.01 32 106.01 32" fill="#FFFFFF" fill-opacity="0.2"></polygon>
                <polygon id="Path" points="113.515 24 121.515 24 121.515 32 113.515 32" fill="#FFFFFF" fill-opacity="0.2"></polygon>
                <polygon id="Path" points="121.021 24 129.021 24 129.021 32 121.021 32" fill="#FFFFFF" fill-opacity="0.2"></polygon>
                <polygon id="Path" points="60.979 32 68.979 32 68.979 40 60.979 40" fill="#FFFFFF" fill-opacity="0.2"></polygon>
                <polygon id="Path" points="75.99 32 83.99 32 83.99 40 75.99 40" fill="#FFFFFF" fill-opacity="0.2"></polygon>
                <polygon id="Path" points="98.505 32 106.505 32 106.505 40 98.505 40" fill="#FFFFFF" fill-opacity="0.2"></polygon>
                <polygon id="Path" points="106.01 32 114.01 32 114.01 40 106.01 40" fill="#FFFFFF" fill-opacity="0.2"></polygon>
                <polygon id="Path" points="121.021 32 129.021 32 129.021 40 121.021 40" fill="#FFFFFF" fill-opacity="0.2"></polygon>
                <polygon id="Path" points="60.979 37.525 68.979 37.525 68.979 45.525 60.979 45.525" fill="#FFFFFF" fill-opacity="0.2"></polygon>
                <polygon id="Path" points="68.485 37.525 76.485 37.525 76.485 45.525 68.485 45.525" fill="#FFFFFF" fill-opacity="0.2"></polygon>
                <polygon id="Path" points="83.495 37.525 91.495 37.525 91.495 45.525 83.495 45.525" fill="#FFFFFF" fill-opacity="0.2"></polygon>
                <polygon id="Path" points="91 37.525 99 37.525 99 45.525 91 45.525" fill="#FFFFFF" fill-opacity="0.2"></polygon>
                <polygon id="Path" points="98.505 37.525 106.505 37.525 106.505 45.525 98.505 45.525" fill="#FFFFFF" fill-opacity="0.2"></polygon>
                <polygon id="Path" points="106.01 37.525 114.01 37.525 114.01 45.525 106.01 45.525" fill="#FFFFFF" fill-opacity="0.2"></polygon>
                <polygon id="Path" points="113.515 37.525 121.515 37.525 121.515 45.525 113.515 45.525" fill="#FFFFFF" fill-opacity="0.2"></polygon>
                <polygon id="Path" points="60.979 45.015 68.979 45.015 68.979 54.015 60.979 54.015" fill="#FFFFFF" fill-opacity="0.2"></polygon>
                <polygon id="Path" points="75.99 45.015 83.99 45.015 83.99 54.015 75.99 54.015" fill="#FFFFFF" fill-opacity="0.2"></polygon>
                <polygon id="Path" points="91 45.015 99 45.015 99 54.015 91 54.015" fill="#FFFFFF" fill-opacity="0.2"></polygon>
                <polygon id="Path" points="106.01 45.015 114.01 45.015 114.01 54.015 106.01 54.015" fill="#FFFFFF" fill-opacity="0.2"></polygon>
                <polygon id="Path" points="121.021 45.015 129.021 45.015 129.021 54.015 121.021 54.015" fill="#FFFFFF" fill-opacity="0.2"></polygon>
                <polygon id="Path" points="60.979 53.475 68.979 53.475 68.979 61.475 60.979 61.475" fill="#FFFFFF" fill-opacity="0.2"></polygon>
                <polygon id="Path" points="75.99 53.475 83.99 53.475 83.99 61.475 75.99 61.475" fill="#FFFFFF" fill-opacity="0.2"></polygon>
                <polygon id="Path" points="106.01 53.475 114.01 53.475 114.01 61.475 106.01 61.475" fill="#FFFFFF" fill-opacity="0.2"></polygon>
                <polygon id="Path" points="0 60.98 8 60.98 8 68.98 0 68.98" fill="#FFFFFF" fill-opacity="0.2"></polygon>
                <polygon id="Path" points="32 60.98 40 60.98 40 68.98 32 68.98" fill="#FFFFFF" fill-opacity="0.2"></polygon>
                <polygon id="Path" points="45.016 60.98 54.016 60.98 54.016 68.98 45.016 68.98" fill="#FFFFFF" fill-opacity="0.2"></polygon>
                <polygon id="Path" points="53.474 60.98 61.474 60.98 61.474 68.98 53.474 68.98" fill="#FFFFFF" fill-opacity="0.2"></polygon>
                <polygon id="Path" points="60.979 60.98 68.979 60.98 68.979 68.98 60.979 68.98" fill="#FFFFFF" fill-opacity="0.2"></polygon>
                <polygon id="Path" points="75.99 60.98 83.99 60.98 83.99 68.98 75.99 68.98" fill="#FFFFFF" fill-opacity="0.2"></polygon>
                <polygon id="Path" points="91 60.98 99 60.98 99 68.98 91 68.98" fill="#FFFFFF" fill-opacity="0.2"></polygon>
                <polygon id="Path" points="98.505 60.98 106.505 60.98 106.505 68.98 98.505 68.98" fill="#FFFFFF" fill-opacity="0.2"></polygon>
                <polygon id="Path" points="106.01 60.98 114.01 60.98 114.01 68.98 106.01 68.98" fill="#FFFFFF" fill-opacity="0.2"></polygon>
                <polygon id="Path" points="113.515 60.98 121.515 60.98 121.515 68.98 113.515 68.98" fill="#FFFFFF" fill-opacity="0.2"></polygon>
                <polygon fill="#FFFFFF" fill-opacity="0.2" id="Path" points="128.526 60.98 136.526 60.98 136.526 68.98 128.526 68.98" fill="#FFFFFF" fill-opacity="0.2" ></polygon>
                <polygon fill="#FFFFFF" fill-opacity="0.2" id="Path" points="135.984 60.98 144.984 60.98 144.984 68.98 135.984 68.98"></polygon>
                <polygon fill="#FFFFFF" fill-opacity="0.2" id="Path" points="144.474 60.98 152.474 60.98 152.474 68.98 144.474 68.98"></polygon>
                <polygon fill="#FFFFFF" fill-opacity="0.2" id="Path" points="150 60.98 158 60.98 158 68.98 150 68.98"></polygon>
                <polygon fill="#FFFFFF" fill-opacity="0.2" id="Path" points="158 60.98 166 60.98 166 68.98 158 68.98"></polygon>
                <polygon fill="#FFFFFF" fill-opacity="0.2" id="Path" points="182 60.98 190 60.98 190 68.98 182 68.98"></polygon>
                <polygon fill="#FFFFFF" fill-opacity="0.2" id="Path" points="0 68.485 8 68.485 8 76.485 0 76.485"></polygon>
                <polygon fill="#FFFFFF" fill-opacity="0.2" id="Path" points="8 68.485 16 68.485 16 76.485 8 76.485"></polygon>
                <polygon fill="#FFFFFF" fill-opacity="0.2" id="Path" points="16 68.485 24 68.485 24 76.485 16 76.485"></polygon>
                <polygon fill="#FFFFFF" fill-opacity="0.2" id="Path" points="24 68.485 32 68.485 32 76.485 24 76.485"></polygon>
                <polygon fill="#FFFFFF" fill-opacity="0.2" id="Path" points="37.526 68.485 45.526 68.485 45.526 76.485 37.526 76.485"></polygon>
                <polygon fill="#FFFFFF" fill-opacity="0.2" id="Path" points="53.474 68.485 61.474 68.485 61.474 76.485 53.474 76.485"></polygon>
                <polygon fill="#FFFFFF" fill-opacity="0.2" id="Path" points="60.979 68.485 68.979 68.485 68.979 76.485 60.979 76.485"></polygon>
                <polygon fill="#FFFFFF" fill-opacity="0.2" id="Path" points="75.99 68.485 83.99 68.485 83.99 76.485 75.99 76.485"></polygon>
                <polygon fill="#FFFFFF" fill-opacity="0.2" id="Path" points="150 68.485 158 68.485 158 76.485 150 76.485"></polygon>
                <polygon fill="#FFFFFF" fill-opacity="0.2" id="Path" points="8 75.99 16 75.99 16 83.99 8 83.99"></polygon>
                <polygon fill="#FFFFFF" fill-opacity="0.2" id="Path" points="24 75.99 32 75.99 32 83.99 24 83.99"></polygon>
                <polygon fill="#FFFFFF" fill-opacity="0.2" id="Path" points="45.016 75.99 54.016 75.99 54.016 83.99 45.016 83.99"></polygon>
                <polygon fill="#FFFFFF" fill-opacity="0.2" id="Path" points="60.979 75.99 68.979 75.99 68.979 83.99 60.979 83.99"></polygon>
                <polygon fill="#FFFFFF" fill-opacity="0.2" id="Path" points="98.505 75.99 106.505 75.99 106.505 83.99 98.505 83.99"></polygon>
                <polygon fill="#FFFFFF" fill-opacity="0.2" id="Path" points="106.01 75.99 114.01 75.99 114.01 83.99 106.01 83.99"></polygon>
                <polygon fill="#FFFFFF" fill-opacity="0.2" id="Path" points="113.515 75.99 121.515 75.99 121.515 83.99 113.515 83.99"></polygon>
                <polygon fill="#FFFFFF" fill-opacity="0.2" id="Path" points="121.021 75.99 129.021 75.99 129.021 83.99 121.021 83.99"></polygon>
                <polygon fill="#FFFFFF" fill-opacity="0.2" id="Path" points="128.526 75.99 136.526 75.99 136.526 83.99 128.526 83.99"></polygon>
                <polygon fill="#FFFFFF" fill-opacity="0.2" id="Path" points="144.474 75.99 152.474 75.99 152.474 83.99 144.474 83.99"></polygon>
                <polygon fill="#FFFFFF" fill-opacity="0.2" id="Path" points="150 75.99 158 75.99 158 83.99 150 83.99"></polygon>
                <polygon fill="#FFFFFF" fill-opacity="0.2" id="Path" points="158 75.99 166 75.99 166 83.99 158 83.99"></polygon>
                <polygon fill="#FFFFFF" fill-opacity="0.2" id="Path" points="166 75.99 174 75.99 174 83.99 166 83.99"></polygon>
                <polygon fill="#FFFFFF" fill-opacity="0.2" id="Path" points="174 75.99 182 75.99 182 83.99 174 83.99"></polygon>
                <polygon fill="#FFFFFF" fill-opacity="0.2" id="Path" points="0 83.495 8 83.495 8 91.495 0 91.495"></polygon>
                <polygon fill="#FFFFFF" fill-opacity="0.2" id="Path" points="68.485 83.495 76.485 83.495 76.485 91.495 68.485 91.495"></polygon>
                <polygon fill="#FFFFFF" fill-opacity="0.2" id="Path" points="98.505 83.495 106.505 83.495 106.505 91.495 98.505 91.495"></polygon>
                <polygon fill="#FFFFFF" fill-opacity="0.2" id="Path" points="135.984 83.495 144.984 83.495 144.984 91.495 135.984 91.495"></polygon>
                <polygon fill="#FFFFFF" fill-opacity="0.2" id="Path" points="166 83.495 174 83.495 174 91.495 166 91.495"></polygon>
                <polygon fill="#FFFFFF" fill-opacity="0.2" id="Path" points="174 83.495 182 83.495 182 91.495 174 91.495"></polygon>
                <polygon fill="#FFFFFF" fill-opacity="0.2" id="Path" points="182 83.495 190 83.495 190 91.495 182 91.495"></polygon>
                <polygon fill="#FFFFFF" fill-opacity="0.2" id="Path" points="8 91 16 91 16 99 8 99"></polygon>
                <polygon fill="#FFFFFF" fill-opacity="0.2" id="Path" points="16 91 24 91 24 99 16 99"></polygon>
                <polygon fill="#FFFFFF" fill-opacity="0.2" id="Path" points="24 91 32 91 32 99 24 99"></polygon>
                <polygon fill="#FFFFFF" fill-opacity="0.2" id="Path" points="32 91 40 91 40 99 32 99"></polygon>
                <polygon fill="#FFFFFF" fill-opacity="0.2" id="Path" points="37.526 91 45.526 91 45.526 99 37.526 99"></polygon>
                <polygon fill="#FFFFFF" fill-opacity="0.2" id="Path" points="45.016 91 54.016 91 54.016 99 45.016 99"></polygon>
                <polygon fill="#FFFFFF" fill-opacity="0.2" id="Path" points="53.474 91 61.474 91 61.474 99 53.474 99"></polygon>
                <polygon fill="#FFFFFF" fill-opacity="0.2" id="Path" points="68.485 91 76.485 91 76.485 99 68.485 99"></polygon>
                <polygon fill="#FFFFFF" fill-opacity="0.2" id="Path" points="91 91 99 91 99 99 91 99"></polygon>
                <polygon fill="#FFFFFF" fill-opacity="0.2" id="Path" points="98.505 91 106.505 91 106.505 99 98.505 99"></polygon>
                <polygon fill="#FFFFFF" fill-opacity="0.2" id="Path" points="113.515 91 121.515 91 121.515 99 113.515 99"></polygon>
                <polygon fill="#FFFFFF" fill-opacity="0.2" id="Path" points="128.526 91 136.526 91 136.526 99 128.526 99"></polygon>
                <polygon fill="#FFFFFF" fill-opacity="0.2" id="Path" points="135.984 91 144.984 91 144.984 99 135.984 99"></polygon>
                <polygon fill="#FFFFFF" fill-opacity="0.2" id="Path" points="182 91 190 91 190 99 182 99"></polygon>
                <polygon fill="#FFFFFF" fill-opacity="0.2" id="Path" points="0 98.505 8 98.505 8 106.505 0 106.505"></polygon>
                <polygon fill="#FFFFFF" fill-opacity="0.2" id="Path" points="32 98.505 40 98.505 40 106.505 32 106.505"></polygon>
                <polygon fill="#FFFFFF" fill-opacity="0.2" id="Path" points="37.526 98.505 45.526 98.505 45.526 106.505 37.526 106.505"></polygon>
                <polygon fill="#FFFFFF" fill-opacity="0.2" id="Path" points="60.979 98.505 68.979 98.505 68.979 106.505 60.979 106.505"></polygon>
                <polygon fill="#FFFFFF" fill-opacity="0.2" id="Path" points="75.99 98.505 83.99 98.505 83.99 106.505 75.99 106.505"></polygon>
                <polygon fill="#FFFFFF" fill-opacity="0.2" id="Path" points="98.505 98.505 106.505 98.505 106.505 106.505 98.505 106.505"></polygon>
                <polygon fill="#FFFFFF" fill-opacity="0.2" id="Path" points="106.01 98.505 114.01 98.505 114.01 106.505 106.01 106.505"></polygon>
                <polygon fill="#FFFFFF" fill-opacity="0.2" id="Path" points="113.515 98.505 121.515 98.505 121.515 106.505 113.515 106.505"></polygon>
                <polygon fill="#FFFFFF" fill-opacity="0.2" id="Path" points="121.021 98.505 129.021 98.505 129.021 106.505 121.021 106.505"></polygon>
                <polygon fill="#FFFFFF" fill-opacity="0.2" id="Path" points="150 98.505 158 98.505 158 106.505 150 106.505"></polygon>
                <polygon fill="#FFFFFF" fill-opacity="0.2" id="Path" points="174 98.505 182 98.505 182 106.505 174 106.505"></polygon>
                <polygon fill="#FFFFFF" fill-opacity="0.2" id="Path" points="182 98.505 190 98.505 190 106.505 182 106.505"></polygon>
                <polygon fill="#FFFFFF" fill-opacity="0.2" id="Path" points="32 106.01 40 106.01 40 114.01 32 114.01"></polygon>
                <polygon fill="#FFFFFF" fill-opacity="0.2" id="Path" points="45.016 106.01 54.016 106.01 54.016 114.01 45.016 114.01"></polygon>
                <polygon fill="#FFFFFF" fill-opacity="0.2" id="Path" points="53.474 106.01 61.474 106.01 61.474 114.01 53.474 114.01"></polygon>
                <polygon fill="#FFFFFF" fill-opacity="0.2" id="Path" points="60.979 106.01 68.979 106.01 68.979 114.01 60.979 114.01"></polygon>
                <polygon fill="#FFFFFF" fill-opacity="0.2" id="Path" points="113.515 106.01 121.515 106.01 121.515 114.01 113.515 114.01"></polygon>
                <polygon fill="#FFFFFF" fill-opacity="0.2" id="Path" points="128.526 106.01 136.526 106.01 136.526 114.01 128.526 114.01"></polygon>
                <polygon fill="#FFFFFF" fill-opacity="0.2" id="Path" points="16 113.515 24 113.515 24 121.515 16 121.515"></polygon>
                <polygon fill="#FFFFFF" fill-opacity="0.2" id="Path" points="24 113.515 32 113.515 32 121.515 24 121.515"></polygon>
                <polygon fill="#FFFFFF" fill-opacity="0.2" id="Path" points="32 113.515 40 113.515 40 121.515 32 121.515"></polygon>
                <polygon fill="#FFFFFF" fill-opacity="0.2" id="Path" points="37.526 113.515 45.526 113.515 45.526 121.515 37.526 121.515"></polygon>
                <polygon fill="#FFFFFF" fill-opacity="0.2" id="Path" points="60.979 113.515 68.979 113.515 68.979 121.515 60.979 121.515"></polygon>
                <polygon fill="#FFFFFF" fill-opacity="0.2" id="Path" points="75.99 113.515 83.99 113.515 83.99 121.515 75.99 121.515"></polygon>
                <polygon fill="#FFFFFF" fill-opacity="0.2" id="Path" points="91 113.515 99 113.515 99 121.515 91 121.515"></polygon>
                <polygon fill="#FFFFFF" fill-opacity="0.2" id="Path" points="106.01 113.515 114.01 113.515 114.01 121.515 106.01 121.515"></polygon>
                <polygon fill="#FFFFFF" fill-opacity="0.2" id="Path" points="113.515 113.515 121.515 113.515 121.515 121.515 113.515 121.515"></polygon>
                <polygon fill="#FFFFFF" fill-opacity="0.2" id="Path" points="166 113.515 174 113.515 174 121.515 166 121.515"></polygon>
                <polygon fill="#FFFFFF" fill-opacity="0.2" id="Path" points="0 121.02 8 121.02 8 129.02 0 129.02"></polygon>
                <polygon fill="#FFFFFF" fill-opacity="0.2" id="Path" points="8 121.02 16 121.02 16 129.02 8 129.02"></polygon>
                <polygon fill="#FFFFFF" fill-opacity="0.2" id="Path" points="32 121.02 40 121.02 40 129.02 32 129.02"></polygon>
                <polygon fill="#FFFFFF" fill-opacity="0.2" id="Path" points="37.526 121.02 45.526 121.02 45.526 129.02 37.526 129.02"></polygon>
                <polygon fill="#FFFFFF" fill-opacity="0.2" id="Path" points="45.016 121.02 54.016 121.02 54.016 129.02 45.016 129.02"></polygon>
                <polygon fill="#FFFFFF" fill-opacity="0.2" id="Path" points="53.474 121.02 61.474 121.02 61.474 129.02 53.474 129.02"></polygon>
                <polygon fill="#FFFFFF" fill-opacity="0.2" id="Path" points="60.979 121.02 68.979 121.02 68.979 129.02 60.979 129.02"></polygon>
                <polygon fill="#FFFFFF" fill-opacity="0.2" id="Path" points="68.485 121.02 76.485 121.02 76.485 129.02 68.485 129.02"></polygon>
                <polygon fill="#FFFFFF" fill-opacity="0.2" id="Path" points="83.495 121.02 91.495 121.02 91.495 129.02 83.495 129.02"></polygon>
                <polygon fill="#FFFFFF" fill-opacity="0.2" id="Path" points="98.505 121.02 106.505 121.02 106.505 129.02 98.505 129.02"></polygon>
                <polygon fill="#FFFFFF" fill-opacity="0.2" id="Path" points="106.01 121.02 114.01 121.02 114.01 129.02 106.01 129.02"></polygon>
                <polygon fill="#FFFFFF" fill-opacity="0.2" id="Path" points="121.021 121.02 129.021 121.02 129.021 129.02 121.021 129.02"></polygon>
                <polygon fill="#FFFFFF" fill-opacity="0.2" id="Path" points="128.526 121.02 136.526 121.02 136.526 129.02 128.526 129.02"></polygon>
                <polygon fill="#FFFFFF" fill-opacity="0.2" id="Path" points="135.984 121.02 144.984 121.02 144.984 129.02 135.984 129.02"></polygon>
                <polygon fill="#FFFFFF" fill-opacity="0.2" id="Path" points="144.474 121.02 152.474 121.02 152.474 129.02 144.474 129.02"></polygon>
                <polygon fill="#FFFFFF" fill-opacity="0.2" id="Path" points="150 121.02 158 121.02 158 129.02 150 129.02"></polygon>
                <polygon fill="#FFFFFF" fill-opacity="0.2" id="Path" points="166 121.02 174 121.02 174 129.02 166 129.02"></polygon>
                <polygon fill="#FFFFFF" fill-opacity="0.2" id="Path" points="182 121.02 190 121.02 190 129.02 182 129.02"></polygon>
                <polygon fill="#FFFFFF" fill-opacity="0.2" id="Path" points="60.979 128.525 68.979 128.525 68.979 136.525 60.979 136.525"></polygon>
                <polygon fill="#FFFFFF" fill-opacity="0.2" id="Path" points="75.99 128.525 83.99 128.525 83.99 136.525 75.99 136.525"></polygon>
                <polygon fill="#FFFFFF" fill-opacity="0.2" id="Path" points="91 128.525 99 128.525 99 136.525 91 136.525"></polygon>
                <polygon fill="#FFFFFF" fill-opacity="0.2" id="Path" points="121.021 128.525 129.021 128.525 129.021 136.525 121.021 136.525"></polygon>
                <polygon fill="#FFFFFF" fill-opacity="0.2" id="Path" points="150 128.525 158 128.525 158 136.525 150 136.525"></polygon>
                <polygon fill="#FFFFFF" fill-opacity="0.2" id="Path" points="158 128.525 166 128.525 166 136.525 158 136.525"></polygon>
                <polygon fill="#FFFFFF" fill-opacity="0.2" id="Path" points="166 128.525 174 128.525 174 136.525 166 136.525"></polygon>
                <polygon fill="#FFFFFF" fill-opacity="0.2" id="Path" points="174 128.525 182 128.525 182 136.525 174 136.525"></polygon>
                <polygon fill="#FFFFFF" fill-opacity="0.2" id="Path" points="182 128.525 190 128.525 190 136.525 182 136.525"></polygon>
                <polygon fill="#FFFFFF" fill-opacity="0.2" id="Path" points="60.979 135.984 68.979 135.984 68.979 144.984 60.979 144.984"></polygon>
                <polygon fill="#FFFFFF" fill-opacity="0.2" id="Path" points="83.495 135.984 91.495 135.984 91.495 144.984 83.495 144.984"></polygon>
                <polygon fill="#FFFFFF" fill-opacity="0.2" id="Path" points="91 135.984 99 135.984 99 144.984 91 144.984"></polygon>
                <polygon fill="#FFFFFF" fill-opacity="0.2" id="Path" points="98.505 135.984 106.505 135.984 106.505 144.984 98.505 144.984"></polygon>
                <polygon fill="#FFFFFF" fill-opacity="0.2" id="Path" points="106.01 135.984 114.01 135.984 114.01 144.984 106.01 144.984"></polygon>
                <polygon fill="#FFFFFF" fill-opacity="0.2" id="Path" points="121.021 135.984 129.021 135.984 129.021 144.984 121.021 144.984"></polygon>
                <polygon fill="#FFFFFF" fill-opacity="0.2" id="Path" points="135.984 135.984 144.984 135.984 144.984 144.984 135.984 144.984"></polygon>
                <polygon fill="#FFFFFF" fill-opacity="0.2" id="Path" points="150 135.984 158 135.984 158 144.984 150 144.984"></polygon>
                <polygon fill="#FFFFFF" fill-opacity="0.2" id="Path" points="83.495 144.475 91.495 144.475 91.495 152.475 83.495 152.475"></polygon>
                <polygon fill="#FFFFFF" fill-opacity="0.2" id="Path" points="98.505 144.475 106.505 144.475 106.505 152.475 98.505 152.475"></polygon>
                <polygon fill="#FFFFFF" fill-opacity="0.2" id="Path" points="121.021 144.475 129.021 144.475 129.021 152.475 121.021 152.475"></polygon>
                <polygon fill="#FFFFFF" fill-opacity="0.2" id="Path" points="150 144.475 158 144.475 158 152.475 150 152.475"></polygon>
                <polygon fill="#FFFFFF" fill-opacity="0.2" id="Path" points="166 144.475 174 144.475 174 152.475 166 152.475"></polygon>
                <polygon fill="#FFFFFF" fill-opacity="0.2" id="Path" points="182 144.475 190 144.475 190 152.475 182 152.475"></polygon>
                <polygon fill="#FFFFFF" fill-opacity="0.2" id="Path" points="60.979 150 68.979 150 68.979 158 60.979 158"></polygon>
                <polygon fill="#FFFFFF" fill-opacity="0.2" id="Path" points="68.485 150 76.485 150 76.485 158 68.485 158"></polygon>
                <polygon fill="#FFFFFF" fill-opacity="0.2" id="Path" points="91 150 99 150 99 158 91 158"></polygon>
                <polygon fill="#FFFFFF" fill-opacity="0.2" id="Path" points="98.505 150 106.505 150 106.505 158 98.505 158"></polygon>
                <polygon fill="#FFFFFF" fill-opacity="0.2" id="Path" points="121.021 150 129.021 150 129.021 158 121.021 158"></polygon>
                <polygon fill="#FFFFFF" fill-opacity="0.2" id="Path" points="128.526 150 136.526 150 136.526 158 128.526 158"></polygon>
                <polygon fill="#FFFFFF" fill-opacity="0.2" id="Path" points="135.984 150 144.984 150 144.984 158 135.984 158"></polygon>
                <polygon fill="#FFFFFF" fill-opacity="0.2" id="Path" points="144.474 150 152.474 150 152.474 158 144.474 158"></polygon>
                <polygon fill="#FFFFFF" fill-opacity="0.2" id="Path" points="150 150 158 150 158 158 150 158"></polygon>
                <polygon fill="#FFFFFF" fill-opacity="0.2" id="Path" points="166 150 174 150 174 158 166 158"></polygon>
                <polygon fill="#FFFFFF" fill-opacity="0.2" id="Path" points="174 150 182 150 182 158 174 158"></polygon>
                <polygon fill="#FFFFFF" fill-opacity="0.2" id="Path" points="68.485 158 76.485 158 76.485 166 68.485 166"></polygon>
                <polygon fill="#FFFFFF" fill-opacity="0.2" id="Path" points="98.505 158 106.505 158 106.505 166 98.505 166"></polygon>
                <polygon fill="#FFFFFF" fill-opacity="0.2" id="Path" points="106.01 158 114.01 158 114.01 166 106.01 166"></polygon>
                <polygon fill="#FFFFFF" fill-opacity="0.2" id="Path" points="121.021 158 129.021 158 129.021 166 121.021 166"></polygon>
                <polygon fill="#FFFFFF" fill-opacity="0.2" id="Path" points="128.526 158 136.526 158 136.526 166 128.526 166"></polygon>
                <polygon fill="#FFFFFF" fill-opacity="0.2" id="Path" points="135.984 158 144.984 158 144.984 166 135.984 166"></polygon>
                <polygon fill="#FFFFFF" fill-opacity="0.2" id="Path" points="144.474 158 152.474 158 152.474 166 144.474 166"></polygon>
                <polygon fill="#FFFFFF" fill-opacity="0.2" id="Path" points="158 158 166 158 166 166 158 166"></polygon>
                <polygon fill="#FFFFFF" fill-opacity="0.2" id="Path" points="182 158 190 158 190 166 182 166"></polygon>
                <polygon fill="#FFFFFF" fill-opacity="0.2" id="Path" points="128.526 166 136.526 166 136.526 174 128.526 174"></polygon>
                <polygon fill="#FFFFFF" fill-opacity="0.2" id="Path" points="135.984 166 144.984 166 144.984 174 135.984 174"></polygon>
                <polygon fill="#FFFFFF" fill-opacity="0.2" id="Path" points="158 166 166 166 166 174 158 174"></polygon>
                <polygon fill="#FFFFFF" fill-opacity="0.2" id="Path" points="166 166 174 166 174 174 166 174"></polygon>
                <polygon fill="#FFFFFF" fill-opacity="0.2" id="Path" points="174 166 182 166 182 174 174 174"></polygon>
                <polygon fill="#FFFFFF" fill-opacity="0.2" id="Path" points="68.485 174 76.485 174 76.485 182 68.485 182"></polygon>
                <polygon fill="#FFFFFF" fill-opacity="0.2" id="Path" points="75.99 174 83.99 174 83.99 182 75.99 182"></polygon>
                <polygon fill="#FFFFFF" fill-opacity="0.2" id="Path" points="91 174 99 174 99 182 91 182"></polygon>
                <polygon fill="#FFFFFF" fill-opacity="0.2" id="Path" points="106.01 174 114.01 174 114.01 182 106.01 182"></polygon>
                <polygon fill="#FFFFFF" fill-opacity="0.2" id="Path" points="113.515 174 121.515 174 121.515 182 113.515 182"></polygon>
                <polygon fill="#FFFFFF" fill-opacity="0.2" id="Path" points="135.984 174 144.984 174 144.984 182 135.984 182"></polygon>
                <polygon fill="#FFFFFF" fill-opacity="0.2" id="Path" points="144.474 174 152.474 174 152.474 182 144.474 182"></polygon>
                <polygon fill="#FFFFFF" fill-opacity="0.2" id="Path" points="166 174 174 174 174 182 166 182"></polygon>
                <polygon fill="#FFFFFF" fill-opacity="0.2" id="Path" points="174 174 182 174 182 182 174 182"></polygon>
                <polygon fill="#FFFFFF" fill-opacity="0.2" id="Path" points="60.979 182 68.979 182 68.979 190 60.979 190"></polygon>
                <polygon fill="#FFFFFF" fill-opacity="0.2" id="Path" points="75.99 182 83.99 182 83.99 190 75.99 190"></polygon>
                <polygon fill="#FFFFFF" fill-opacity="0.2" id="Path" points="83.495 182 91.495 182 91.495 190 83.495 190"></polygon>
                <polygon fill="#FFFFFF" fill-opacity="0.2" id="Path" points="98.505 182 106.505 182 106.505 190 98.505 190"></polygon>
                <polygon fill="#FFFFFF" fill-opacity="0.2" id="Path" points="106.01 182 114.01 182 114.01 190 106.01 190"></polygon>
                <polygon fill="#FFFFFF" fill-opacity="0.2" id="Path" points="113.515 182 121.515 182 121.515 190 113.515 190"></polygon>
                <polygon fill="#FFFFFF" fill-opacity="0.2" id="Path" points="150 182 158 182 158 190 150 190"></polygon>
                <polygon fill="#FFFFFF" fill-opacity="0.2" id="Path" points="166 182 174 182 174 190 166 190"></polygon>
                <polygon fill="#FFFFFF" fill-opacity="0.2" id="Path" points="174 182 182 182 182 190 174 190"></polygon>
                <polygon fill="#FFFFFF" fill-opacity="0.2" id="Path" points="182 182 190 182 190 190 182 190"></polygon>
                <path fill="#FFFFFF" fill-opacity="0.2" d="M48.076,0 L0,0 L0,56.56 L56.56,56.56 L56.56,0 L48.076,0 Z M48.076,48.076 L8.484,48.076 L8.484,8.484 L48.076,8.484 L48.076,48.076 Z" id="Shape"></path>
                <path fill="#FFFFFF" fill-opacity="0.2" d="M181.516,0 L133.44,0 L133.44,56.56 L190,56.56 L190,0 L181.516,0 Z M181.516,48.076 L141.924,48.076 L141.924,8.484 L181.516,8.484 L181.516,48.076 Z" id="Shape"></path>
                <path fill="#FFFFFF" fill-opacity="0.2" d="M48.076,133.44 L0,133.44 L0,190 L56.56,190 L56.56,133.44 L48.076,133.44 Z M48.076,181.516 L8.484,181.516 L8.484,141.924 L48.076,141.924 L48.076,181.516 Z" id="Shape"></path>
                <polygon fill="#FFFFFF" fill-opacity="0.2" id="Path" points="16 16 40 16 40 40 16 40"></polygon>
                <polygon fill="#FFFFFF" fill-opacity="0.2" id="Path" points="150 16 174 16 174 40 150 40"></polygon>
                <polygon fill="#FFFFFF" fill-opacity="0.2" id="Path" points="16 150 40 150 40 174 16 174"></polygon>
            </g>
</svg>