<svg height="190" viewBox="0 0 190 190" width="190" xmlns="http://www.w3.org/2000/svg"><g opacity=".6"><path d="m0 0h8v8h-8z" transform="translate(60.979)"/><path d="m0 0h8v8h-8z" transform="translate(68.485)"/><path d="m0 0h8v8h-8z" transform="translate(75.99)"/><path d="m0 0h8v8h-8z" transform="translate(83.495)"/><path d="m0 0h8v8h-8z" transform="translate(91)"/><path d="m0 0h8v8h-8z" transform="translate(68.485 8)"/><path d="m0 0h8v8h-8z" transform="translate(75.99 8)"/><path d="m0 0h8v8h-8z" transform="translate(83.495 8)"/><path d="m0 0h8v8h-8z" transform="translate(91 8)"/><path d="m0 0h8v8h-8z" transform="translate(121.021 8)"/><path d="m0 0h8v8h-8z" transform="translate(75.99 16)"/><path d="m0 0h8v8h-8z" transform="translate(91 16)"/><path d="m0 0h8v8h-8z" transform="translate(98.505 16)"/><path d="m0 0h8v8h-8z" transform="translate(113.515 16)"/><path d="m0 0h8v8h-8z" transform="translate(121.021 16)"/><path d="m0 0h8v8h-8z" transform="translate(60.979 24)"/><path d="m0 0h8v8h-8z" transform="translate(75.99 24)"/><path d="m0 0h8v8h-8z" transform="translate(106.01 24)"/><path d="m0 0h8v8h-8z" transform="translate(113.515 24)"/><path d="m0 0h8v8h-8z" transform="translate(121.021 24)"/><path d="m0 0h8v8h-8z" transform="translate(60.979 32)"/><path d="m0 0h8v8h-8z" transform="translate(75.99 32)"/><path d="m0 0h8v8h-8z" transform="translate(98.505 32)"/><path d="m0 0h8v8h-8z" transform="translate(106.01 32)"/><path d="m0 0h8v8h-8z" transform="translate(121.021 32)"/><path d="m0 0h8v8h-8z" transform="translate(60.979 37.525)"/><path d="m0 0h8v8h-8z" transform="translate(68.485 37.525)"/><path d="m0 0h8v8h-8z" transform="translate(83.495 37.525)"/><path d="m0 0h8v8h-8z" transform="translate(91 37.525)"/><path d="m0 0h8v8h-8z" transform="translate(98.505 37.525)"/><path d="m0 0h8v8h-8z" transform="translate(106.01 37.525)"/><path d="m0 0h8v8h-8z" transform="translate(113.515 37.525)"/><path d="m0 0h8v9h-8z" transform="translate(60.979 45.015)"/><path d="m0 0h8v9h-8z" transform="translate(75.99 45.015)"/><path d="m0 0h8v9h-8z" transform="translate(91 45.015)"/><path d="m0 0h8v9h-8z" transform="translate(106.01 45.015)"/><path d="m0 0h8v9h-8z" transform="translate(121.021 45.015)"/><path d="m0 0h8v8h-8z" transform="translate(60.979 53.475)"/><path d="m0 0h8v8h-8z" transform="translate(75.99 53.475)"/><path d="m0 0h8v8h-8z" transform="translate(106.01 53.475)"/><path d="m0 0h8v8h-8z" transform="translate(0 60.98)"/><path d="m0 0h8v8h-8z" transform="translate(32 60.98)"/><path d="m0 0h9v8h-9z" transform="translate(45.016 60.98)"/><path d="m0 0h8v8h-8z" transform="translate(53.474 60.98)"/><path d="m0 0h8v8h-8z" transform="translate(60.979 60.98)"/><path d="m0 0h8v8h-8z" transform="translate(75.99 60.98)"/><path d="m0 0h8v8h-8z" transform="translate(91 60.98)"/><path d="m0 0h8v8h-8z" transform="translate(98.505 60.98)"/><path d="m0 0h8v8h-8z" transform="translate(106.01 60.98)"/><path d="m0 0h8v8h-8z" transform="translate(113.515 60.98)"/><path d="m0 0h8v8h-8z" transform="translate(128.526 60.98)"/><path d="m0 0h9v8h-9z" transform="translate(135.984 60.98)"/><path d="m0 0h8v8h-8z" transform="translate(144.474 60.98)"/><path d="m0 0h8v8h-8z" transform="translate(150 60.98)"/><path d="m0 0h8v8h-8z" transform="translate(158 60.98)"/><path d="m0 0h8v8h-8z" transform="translate(182 60.98)"/><path d="m0 0h8v8h-8z" transform="translate(0 68.485)"/><path d="m0 0h8v8h-8z" transform="translate(8 68.485)"/><path d="m0 0h8v8h-8z" transform="translate(16 68.485)"/><path d="m0 0h8v8h-8z" transform="translate(24 68.485)"/><path d="m0 0h8v8h-8z" transform="translate(37.526 68.485)"/><path d="m0 0h8v8h-8z" transform="translate(53.474 68.485)"/><path d="m0 0h8v8h-8z" transform="translate(60.979 68.485)"/><path d="m0 0h8v8h-8z" transform="translate(75.99 68.485)"/><path d="m0 0h8v8h-8z" transform="translate(150 68.485)"/><path d="m0 0h8v8h-8z" transform="translate(8 75.99)"/><path d="m0 0h8v8h-8z" transform="translate(24 75.99)"/><path d="m0 0h9v8h-9z" transform="translate(45.016 75.99)"/><path d="m0 0h8v8h-8z" transform="translate(60.979 75.99)"/><path d="m0 0h8v8h-8z" transform="translate(98.505 75.99)"/><path d="m0 0h8v8h-8z" transform="translate(106.01 75.99)"/><path d="m0 0h8v8h-8z" transform="translate(113.515 75.99)"/><path d="m0 0h8v8h-8z" transform="translate(121.021 75.99)"/><path d="m0 0h8v8h-8z" transform="translate(128.526 75.99)"/><path d="m0 0h8v8h-8z" transform="translate(144.474 75.99)"/><path d="m0 0h8v8h-8z" transform="translate(150 75.99)"/><path d="m0 0h8v8h-8z" transform="translate(158 75.99)"/><path d="m0 0h8v8h-8z" transform="translate(166 75.99)"/><path d="m0 0h8v8h-8z" transform="translate(174 75.99)"/><path d="m0 0h8v8h-8z" transform="translate(0 83.495)"/><path d="m0 0h8v8h-8z" transform="translate(68.485 83.495)"/><path d="m0 0h8v8h-8z" transform="translate(98.505 83.495)"/><path d="m0 0h9v8h-9z" transform="translate(135.984 83.495)"/><path d="m0 0h8v8h-8z" transform="translate(166 83.495)"/><path d="m0 0h8v8h-8z" transform="translate(174 83.495)"/><path d="m0 0h8v8h-8z" transform="translate(182 83.495)"/><path d="m0 0h8v8h-8z" transform="translate(8 91)"/><path d="m0 0h8v8h-8z" transform="translate(16 91)"/><path d="m0 0h8v8h-8z" transform="translate(24 91)"/><path d="m0 0h8v8h-8z" transform="translate(32 91)"/><path d="m0 0h8v8h-8z" transform="translate(37.526 91)"/><path d="m0 0h9v8h-9z" transform="translate(45.016 91)"/><path d="m0 0h8v8h-8z" transform="translate(53.474 91)"/><path d="m0 0h8v8h-8z" transform="translate(68.485 91)"/><path d="m0 0h8v8h-8z" transform="translate(91 91)"/><path d="m0 0h8v8h-8z" transform="translate(98.505 91)"/><path d="m0 0h8v8h-8z" transform="translate(113.515 91)"/><path d="m0 0h8v8h-8z" transform="translate(128.526 91)"/><path d="m0 0h9v8h-9z" transform="translate(135.984 91)"/><path d="m0 0h8v8h-8z" transform="translate(182 91)"/><path d="m0 0h8v8h-8z" transform="translate(0 98.505)"/><path d="m0 0h8v8h-8z" transform="translate(32 98.505)"/><path d="m0 0h8v8h-8z" transform="translate(37.526 98.505)"/><path d="m0 0h8v8h-8z" transform="translate(60.979 98.505)"/><path d="m0 0h8v8h-8z" transform="translate(75.99 98.505)"/><path d="m0 0h8v8h-8z" transform="translate(98.505 98.505)"/><path d="m0 0h8v8h-8z" transform="translate(106.01 98.505)"/><path d="m0 0h8v8h-8z" transform="translate(113.515 98.505)"/><path d="m0 0h8v8h-8z" transform="translate(121.021 98.505)"/><path d="m0 0h8v8h-8z" transform="translate(150 98.505)"/><path d="m0 0h8v8h-8z" transform="translate(174 98.505)"/><path d="m0 0h8v8h-8z" transform="translate(182 98.505)"/><path d="m0 0h8v8h-8z" transform="translate(32 106.01)"/><path d="m0 0h9v8h-9z" transform="translate(45.016 106.01)"/><path d="m0 0h8v8h-8z" transform="translate(53.474 106.01)"/><path d="m0 0h8v8h-8z" transform="translate(60.979 106.01)"/><path d="m0 0h8v8h-8z" transform="translate(113.515 106.01)"/><path d="m0 0h8v8h-8z" transform="translate(128.526 106.01)"/><path d="m0 0h8v8h-8z" transform="translate(16 113.515)"/><path d="m0 0h8v8h-8z" transform="translate(24 113.515)"/><path d="m0 0h8v8h-8z" transform="translate(32 113.515)"/><path d="m0 0h8v8h-8z" transform="translate(37.526 113.515)"/><path d="m0 0h8v8h-8z" transform="translate(60.979 113.515)"/><path d="m0 0h8v8h-8z" transform="translate(75.99 113.515)"/><path d="m0 0h8v8h-8z" transform="translate(91 113.515)"/><path d="m0 0h8v8h-8z" transform="translate(106.01 113.515)"/><path d="m0 0h8v8h-8z" transform="translate(113.515 113.515)"/><path d="m0 0h8v8h-8z" transform="translate(166 113.515)"/><path d="m0 0h8v8h-8z" transform="translate(0 121.02)"/><path d="m0 0h8v8h-8z" transform="translate(8 121.02)"/><path d="m0 0h8v8h-8z" transform="translate(32 121.02)"/><path d="m0 0h8v8h-8z" transform="translate(37.526 121.02)"/><path d="m0 0h9v8h-9z" transform="translate(45.016 121.02)"/><path d="m0 0h8v8h-8z" transform="translate(53.474 121.02)"/><path d="m0 0h8v8h-8z" transform="translate(60.979 121.02)"/><path d="m0 0h8v8h-8z" transform="translate(68.485 121.02)"/><path d="m0 0h8v8h-8z" transform="translate(83.495 121.02)"/><path d="m0 0h8v8h-8z" transform="translate(98.505 121.02)"/><path d="m0 0h8v8h-8z" transform="translate(106.01 121.02)"/><path d="m0 0h8v8h-8z" transform="translate(121.021 121.02)"/><path d="m0 0h8v8h-8z" transform="translate(128.526 121.02)"/><path d="m0 0h9v8h-9z" transform="translate(135.984 121.02)"/><path d="m0 0h8v8h-8z" transform="translate(144.474 121.02)"/><path d="m0 0h8v8h-8z" transform="translate(150 121.02)"/><path d="m0 0h8v8h-8z" transform="translate(166 121.02)"/><path d="m0 0h8v8h-8z" transform="translate(182 121.02)"/><path d="m0 0h8v8h-8z" transform="translate(60.979 128.525)"/><path d="m0 0h8v8h-8z" transform="translate(75.99 128.525)"/><path d="m0 0h8v8h-8z" transform="translate(91 128.525)"/><path d="m0 0h8v8h-8z" transform="translate(121.021 128.525)"/><path d="m0 0h8v8h-8z" transform="translate(150 128.525)"/><path d="m0 0h8v8h-8z" transform="translate(158 128.525)"/><path d="m0 0h8v8h-8z" transform="translate(166 128.525)"/><path d="m0 0h8v8h-8z" transform="translate(174 128.525)"/><path d="m0 0h8v8h-8z" transform="translate(182 128.525)"/><path d="m0 0h8v9h-8z" transform="translate(60.979 135.984)"/><path d="m0 0h8v9h-8z" transform="translate(83.495 135.984)"/><path d="m0 0h8v9h-8z" transform="translate(91 135.984)"/><path d="m0 0h8v9h-8z" transform="translate(98.505 135.984)"/><path d="m0 0h8v9h-8z" transform="translate(106.01 135.984)"/><path d="m0 0h8v9h-8z" transform="translate(121.021 135.984)"/><path d="m0 0h9v9h-9z" transform="translate(135.984 135.984)"/><path d="m0 0h8v9h-8z" transform="translate(150 135.984)"/><path d="m0 0h8v8h-8z" transform="translate(83.495 144.475)"/><path d="m0 0h8v8h-8z" transform="translate(98.505 144.475)"/><path d="m0 0h8v8h-8z" transform="translate(121.021 144.475)"/><path d="m0 0h8v8h-8z" transform="translate(150 144.475)"/><path d="m0 0h8v8h-8z" transform="translate(166 144.475)"/><path d="m0 0h8v8h-8z" transform="translate(182 144.475)"/><path d="m0 0h8v8h-8z" transform="translate(60.979 150)"/><path d="m0 0h8v8h-8z" transform="translate(68.485 150)"/><path d="m0 0h8v8h-8z" transform="translate(91 150)"/><path d="m0 0h8v8h-8z" transform="translate(98.505 150)"/><path d="m0 0h8v8h-8z" transform="translate(121.021 150)"/><path d="m0 0h8v8h-8z" transform="translate(128.526 150)"/><path d="m0 0h9v8h-9z" transform="translate(135.984 150)"/><path d="m0 0h8v8h-8z" transform="translate(144.474 150)"/><path d="m0 0h8v8h-8z" transform="translate(150 150)"/><path d="m0 0h8v8h-8z" transform="translate(166 150)"/><path d="m0 0h8v8h-8z" transform="translate(174 150)"/><path d="m0 0h8v8h-8z" transform="translate(68.485 158)"/><path d="m0 0h8v8h-8z" transform="translate(98.505 158)"/><path d="m0 0h8v8h-8z" transform="translate(106.01 158)"/><path d="m0 0h8v8h-8z" transform="translate(121.021 158)"/><path d="m0 0h8v8h-8z" transform="translate(128.526 158)"/><path d="m0 0h9v8h-9z" transform="translate(135.984 158)"/><path d="m0 0h8v8h-8z" transform="translate(144.474 158)"/><path d="m0 0h8v8h-8z" transform="translate(158 158)"/><path d="m0 0h8v8h-8z" transform="translate(182 158)"/><path d="m0 0h8v8h-8z" transform="translate(128.526 166)"/><path d="m0 0h9v8h-9z" transform="translate(135.984 166)"/><path d="m0 0h8v8h-8z" transform="translate(158 166)"/><path d="m0 0h8v8h-8z" transform="translate(166 166)"/><path d="m0 0h8v8h-8z" transform="translate(174 166)"/><path d="m0 0h8v8h-8z" transform="translate(68.485 174)"/><path d="m0 0h8v8h-8z" transform="translate(75.99 174)"/><path d="m0 0h8v8h-8z" transform="translate(91 174)"/><path d="m0 0h8v8h-8z" transform="translate(106.01 174)"/><path d="m0 0h8v8h-8z" transform="translate(113.515 174)"/><path d="m0 0h9v8h-9z" transform="translate(135.984 174)"/><path d="m0 0h8v8h-8z" transform="translate(144.474 174)"/><path d="m0 0h8v8h-8z" transform="translate(166 174)"/><path d="m0 0h8v8h-8z" transform="translate(174 174)"/><path d="m0 0h8v8h-8z" transform="translate(60.979 182)"/><path d="m0 0h8v8h-8z" transform="translate(75.99 182)"/><path d="m0 0h8v8h-8z" transform="translate(83.495 182)"/><path d="m0 0h8v8h-8z" transform="translate(98.505 182)"/><path d="m0 0h8v8h-8z" transform="translate(106.01 182)"/><path d="m0 0h8v8h-8z" transform="translate(113.515 182)"/><path d="m0 0h8v8h-8z" transform="translate(150 182)"/><path d="m0 0h8v8h-8z" transform="translate(166 182)"/><path d="m0 0h8v8h-8z" transform="translate(174 182)"/><path d="m0 0h8v8h-8z" transform="translate(182 182)"/><path d="m0 0h40v40h-40z" transform="translate(8 8)"/><path d="m48.076 0h-48.076v56.56h56.56v-56.56zm0 48.076h-39.592v-39.592h39.592z"/><g transform="translate(133.44)"><path d="m0 0h40v40h-40z" transform="translate(8.56 8)"/><path d="m48.076 0h-48.076v56.56h56.56v-56.56zm0 48.076h-39.592v-39.592h39.592z"/></g><g transform="translate(0 133.44)"><path d="m0 0h40v40h-40z" transform="translate(8 8.56)"/><path d="m48.076 0h-48.076v56.56h56.56v-56.56zm0 48.076h-39.592v-39.592h39.592z"/></g><path d="m0 0h24v24h-24z" transform="translate(16 16)"/><path d="m0 0h24v24h-24z" transform="translate(150 16)"/><path d="m0 0h24v24h-24z" transform="translate(16 150)"/></g></svg>