<svg xmlns="http://www.w3.org/2000/svg" width="46.667" height="35" viewBox="0 0 46.667 35">
  <path id="shipping-fast" d="M20.417,43.667A.585.585,0,0,0,21,43.083V41.917a.585.585,0,0,0-.583-.583H2.917a.585.585,0,0,0-.583.583v1.167a.585.585,0,0,0,.583.583Zm25.667,14h-1.75V49.784a4.671,4.671,0,0,0-1.371-3.3l-6.118-6.118A4.646,4.646,0,0,0,33.549,39H30.333V35.4a3.51,3.51,0,0,0-3.6-3.4H8.269a3.51,3.51,0,0,0-3.6,3.4v1.269H.583A.585.585,0,0,0,0,37.25v1.167A.585.585,0,0,0,.583,39h17.5a.585.585,0,0,0,.583-.583V37.25a.585.585,0,0,0-.583-.583H7V35.4a1.179,1.179,0,0,1,1.269-1.065H26.731A1.179,1.179,0,0,1,28,35.4V57.667H15.137A5.813,5.813,0,0,0,10.5,55.333a5.749,5.749,0,0,0-3.5,1.2V50.667H4.667v10.5a5.833,5.833,0,1,0,11.667,0A6.145,6.145,0,0,0,16.217,60H30.45a5.6,5.6,0,0,0-.117,1.167,5.833,5.833,0,1,0,11.667,0A6.146,6.146,0,0,0,41.883,60h4.2a.585.585,0,0,0,.583-.583V58.25A.585.585,0,0,0,46.083,57.667Zm-35.583,7a3.5,3.5,0,1,1,3.5-3.5A3.5,3.5,0,0,1,10.5,64.667ZM30.333,41.333h3.216a2.329,2.329,0,0,1,1.648.685l6.118,6.118a1.951,1.951,0,0,1,.131.2H30.333Zm5.833,23.333a3.5,3.5,0,1,1,3.5-3.5A3.5,3.5,0,0,1,36.167,64.667Zm5.833-7H40.8a5.775,5.775,0,0,0-9.275,0h-1.2v-7H42ZM18.667,47.75V46.583A.585.585,0,0,0,18.083,46H.583A.585.585,0,0,0,0,46.583V47.75a.585.585,0,0,0,.583.583h17.5A.585.585,0,0,0,18.667,47.75Z" transform="translate(0 -32)" fill="#fff"/>
</svg>
