<svg height="180" viewBox="0 0 281 180" width="281" xmlns="http://www.w3.org/2000/svg" xmlns:xlink="http://www.w3.org/1999/xlink"><linearGradient id="a" gradientUnits="objectBoundingBox" x1=".081" x2=".98" y2=".969"><stop offset="0" stop-color="#00eaea"/><stop offset=".542" stop-color="#39c1ff"/><stop offset="1" stop-color="#3979ff"/></linearGradient><clipPath id="b"><path d="m0 0h281v180h-281z" transform="translate(0 .315)"/></clipPath><g transform="translate(0 -.315)"><path d="m0 0h281v180h-281z" fill="none" transform="translate(0 .315)"/><g clip-path="url(#b)"><path d="m50 0h200a50 50 0 0 1 50 50v200a50 50 0 0 1 -50 50h-200a50 50 0 0 1 -50-50v-200a50 50 0 0 1 50-50z" fill="url(#a)" transform="matrix(.97437006 -.22495105 .22495105 .97437006 -2.212967 -102.412962)"/></g></g></svg>