<svg xmlns="http://www.w3.org/2000/svg" width="40" height="40" viewBox="0 0 40 40">
    <defs>
        <linearGradient id="linear-gradient" x1=".215" x2="1" y2="1" gradientUnits="objectBoundingBox">
            <stop offset="0" stop-color="#ff96e3"/>
            <stop offset=".493" stop-color="#c971ff"/>
            <stop offset="1" stop-color="#9774ff"/>
        </linearGradient>
    </defs>
    <g id="envelope-open-dollar">
        <path id="Shape" fill="url(#linear-gradient)" d="M36.25 40H3.75A3.754 3.754 0 0 1 0 36.25V15.74a3.734 3.734 0 0 1 1.369-2.9c.143-.112 1.766-1.421 3.631-2.92V7.5A2.5 2.5 0 0 1 7.5 5h3.629l.441-.352.357-.284c.254-.2.535-.44.832-.691a24.518 24.518 0 0 1 3.207-2.4A7.867 7.867 0 0 1 20 0c2.9 0 5.52 2.214 7.251 3.68.294.249.572.485.822.684l.016.013.781.623h3.63A2.5 2.5 0 0 1 35 7.5v2.421c1.994 1.6 3.491 2.809 3.64 2.932a3.735 3.735 0 0 1 1.36 2.89V36.25A3.754 3.754 0 0 1 36.25 40zM2.5 20.227V36.25a1.251 1.251 0 0 0 1.25 1.25h32.5a1.251 1.251 0 0 0 1.25-1.25V20.227c-2.654 2.137-7.595 6.114-10.21 8.19-.247.2-.523.43-.815.676-1.7 1.437-4.035 3.406-6.444 3.406h-.064c-2.418 0-4.849-2.056-6.458-3.417-.288-.243-.56-.473-.8-.665-2.841-2.257-8.086-6.479-10.209-8.19zM7.5 7.5v13.542c1.681 1.351 4.794 3.853 6.765 5.417.221.176.484.4.762.634C16.4 28.251 18.463 30 19.968 30h.063c1.506 0 3.573-1.748 4.94-2.9.28-.237.543-.459.764-.636 1.438-1.141 3.714-2.963 6.765-5.417V7.5zM35 13.13v5.9l1.18-.951.023-.018 1.297-1.044v-1.274a1.246 1.246 0 0 0-.453-.963c-.106-.087-.901-.728-2.047-1.65zm-30 0l-2.044 1.647a1.245 1.245 0 0 0-.456.965v1.276L5 19.03zM20 2.5c-1.67 0-3.429 1.264-4.93 2.5h9.863C23.437 3.764 21.681 2.5 20 2.5zm.626 23.75h-1.25a.626.626 0 0 1-.625-.625v-1.273a4.443 4.443 0 0 1-2.45-.887.606.606 0 0 1-.24-.451.634.634 0 0 1 .195-.5l.918-.876a.606.606 0 0 1 .42-.166.7.7 0 0 1 .371.109 1.882 1.882 0 0 0 1 .29h2.2a.982.982 0 0 0 .922-1.03 1.021 1.021 0 0 0-.685-.995L17.884 18.8a3.573 3.573 0 0 1-1.493-5.851 3.361 3.361 0 0 1 2.359-1.061v-1.263a.626.626 0 0 1 .625-.625h1.25a.626.626 0 0 1 .625.625V11.9a4.452 4.452 0 0 1 2.45.887.607.607 0 0 1 .24.451.635.635 0 0 1-.195.5l-.918.876a.607.607 0 0 1-.421.166.7.7 0 0 1-.371-.109 1.878 1.878 0 0 0-1-.291h-2.2a.982.982 0 0 0-.922 1.031 1.019 1.019 0 0 0 .685.994l3.515 1.055a3.573 3.573 0 0 1 1.492 5.851 3.361 3.361 0 0 1-2.359 1.06v1.259a.626.626 0 0 1-.62.62z"/>
    </g>
</svg>
