<svg xmlns="http://www.w3.org/2000/svg" id="stream" width="32" height="32" viewBox="0 0 32 32">
    <path id="Rectangle" fill="none" d="M0 0H32V32H0z"/>
    <path id="Shape" fill="#373737" d="M.494 19.75A.494.494 0 0 1 0 19.256v-.987a.494.494 0 0 1 .494-.494h26.663a.494.494 0 0 1 .493.494v.987a.493.493 0 0 1-.493.493zm3.949-8.888a.493.493 0 0 1-.493-.493v-.987a.494.494 0 0 1 .493-.494h26.663a.494.494 0 0 1 .494.494v.987a.493.493 0 0 1-.494.493zM.494 1.975A.494.494 0 0 1 0 1.481V.494A.494.494 0 0 1 .494 0h26.663a.494.494 0 0 1 .493.494v.987a.493.493 0 0 1-.493.493z" transform="translate(0 7)"/>
</svg>
