<?xml version="1.0" encoding="UTF-8"?><svg version="1.1" viewBox="0 0 512 512" xmlns="http://www.w3.org/2000/svg" xmlns:xlink="http://www.w3.org/1999/xlink"><!--Generated by IJSVG (https://github.com/iconjar/IJSVG)--><path d="M256,8c-136.967,0 -248,111.033 -248,248c0,136.967 111.033,248 248,248c136.967,0 248,-111.033 248,-248c0,-136.967 -111.033,-248 -248,-248Zm0,464c-118.664,0 -216,-96.055 -216,-216c0,-118.663 96.055,-216 216,-216c118.664,0 216,96.055 216,216c0,118.663 -96.055,216 -216,216Zm141.63,-274.961l-180.48,179.032c-4.705,4.667 -12.303,4.637 -16.97,-0.068l-85.878,-86.572c-4.667,-4.705 -4.637,-12.303 0.068,-16.97l8.52,-8.451c4.705,-4.667 12.303,-4.637 16.97,0.068l68.976,69.533l163.441,-162.13c4.705,-4.667 12.303,-4.637 16.97,0.068l8.451,8.52c4.668,4.705 4.637,12.303 -0.068,16.97Z" fill="#000"></path></svg>