<svg xmlns="http://www.w3.org/2000/svg" width="37" height="50" viewBox="0 0 37 50">
    <g fill="none" fill-rule="evenodd" transform="translate(-169 -689)">
        <path fill="#575757" fill-rule="nonzero" d="M192.9 739c-3.6 0-6.223-.86-7.87-2.578-1.647-1.717-2.47-3.57-2.47-5.555 0-.725.142-1.336.43-1.832.28-.49.687-.896 1.178-1.175.498-.286 1.11-.43 1.839-.43.728 0 1.34.144 1.838.43.498.286.89.678 1.178 1.175.287.496.43 1.107.43 1.832 0 .879-.21 1.594-.631 2.148-.422.554-.92.916-1.495 1.089.5.686 1.284 1.173 2.357 1.46 1.072.305 2.144.458 3.217.458 1.493 0 2.843-.401 4.05-1.203 1.206-.802 2.097-1.985 2.672-3.55.574-1.566.862-3.342.862-5.328 0-2.157-.317-4-.948-5.526-.614-1.547-1.523-2.692-2.73-3.437-1.17-.734-2.524-1.121-3.906-1.116-.92 0-2.068.381-3.448 1.145l-2.528 1.26v-1.26l11.376-15.12H182.56v15.692c0 1.299.288 2.368.862 3.208.575.84 1.455 1.26 2.643 1.26.918 0 1.8-.305 2.643-.917.848-.617 1.586-1.371 2.183-2.233.076-.172.172-.296.287-.373.103-.09.236-.141.373-.143.211 0 .46.105.748.316.268.305.402.658.402 1.059-.033.27-.081.538-.144.802-.651 1.451-1.552 2.558-2.7 3.322-1.12.754-2.441 1.153-3.792 1.145-3.409 0-5.765-.668-7.067-2.004-1.302-1.337-1.953-3.15-1.953-5.441v-15.693H169v-2.922h8.044v-6.643l-1.839-1.834V689h5.343l2.01 1.03v8.935l20.799-.057 2.068 2.062-12.754 12.715c.772-.307 1.585-.5 2.413-.573 1.379 0 2.93.44 4.654 1.318 1.742.859 3.083 2.043 4.02 3.55.94 1.49 1.542 2.921 1.81 4.296.288 1.375.432 2.596.432 3.665 0 2.444-.518 4.716-1.551 6.817-1.035 2.1-2.605 3.664-4.711 4.696-2.107 1.03-4.386 1.546-6.837 1.546z"/>
    </g>
</svg>
