<?xml version="1.0" encoding="UTF-8"?><svg version="1.1" viewBox="0 0 384 512" xmlns="http://www.w3.org/2000/svg" xmlns:xlink="http://www.w3.org/1999/xlink"><!--Generated by IJSVG (https://github.com/iconjar/IJSVG)--><path d="M368,32h4c6.627,0 12,-5.373 12,-12v-8c0,-6.627 -5.373,-12 -12,-12h-360c-6.627,0 -12,5.373 -12,12v8c0,6.627 5.373,12 12,12h4c0,91.821 44.108,193.657 129.646,224c-85.814,30.441 -129.646,132.477 -129.646,224h-4c-6.627,0 -12,5.373 -12,12v8c0,6.627 5.373,12 12,12h360c6.627,0 12,-5.373 12,-12v-8c0,-6.627 -5.373,-12 -12,-12h-4c0,-91.821 -44.108,-193.657 -129.646,-224c85.814,-30.441 129.646,-132.477 129.646,-224Zm-320,0h288c0,110.457 -64.471,200 -144,200c-79.529,0 -144,-89.543 -144,-200Zm288,448h-288c0,-110.457 64.471,-200 144,-200c79.529,0 144,89.543 144,200Zm-66.34,-333.088l-1.36233e-06,1.90684e-06c-2.14338,3.00007 -4.40311,5.91529 -6.774,8.739c-2.301,2.738 -5.671,4.348 -9.248,4.348h-123.276c-3.576,0 -6.947,-1.61 -9.248,-4.348l6.34398e-06,7.55854e-06c-2.37035,-2.82415 -4.63005,-5.73935 -6.774,-8.739c-5.657,-7.91 0.088,-18.912 9.813,-18.912h135.694c9.725,0 15.469,11.003 9.813,18.912Zm-171.281,269.088h187.243l3.41902e-07,-2.42153e-11c5.43666,-0.000385209 10.1955,3.65142 11.602,8.903l4.34349e-06,1.62418e-05c0.747361,2.79465 1.43384,5.60522 2.05894,8.42973c1.664,7.522 -4,14.667 -11.704,14.667h-191.157c-7.704,0 -13.368,-7.145 -11.704,-14.667c0.62,-2.804 1.307,-5.616 2.059,-8.43l1.71223e-07,-6.3927e-07c1.40656,-5.25148 6.16542,-8.90317 11.602,-8.90275Z" fill="#000"></path></svg>