<svg xmlns="http://www.w3.org/2000/svg" width="33" height="29" viewBox="0 0 33 29">
    <path fill="#FFF" fill-rule="evenodd" d="M24.3 14.175c-1.118 0-2.025.907-2.025 2.025 0 1.118.907 2.025 2.025 2.025 1.118 0 2.025-.907 2.025-2.025 0-1.118-.907-2.025-2.025-2.025zM29.363 4.05H28.35V3.038C28.35 1.36 26.99 0 25.313 0H6.075C2.72 0 0 2.72 0 6.075v16.2c0 3.355 2.72 6.075 6.075 6.075H28.35c2.237 0 4.05-1.813 4.05-4.05V7.088c0-1.678-1.36-3.038-3.037-3.038zm1.012 20.25c0 1.116-.909 2.025-2.025 2.025H6.075c-2.233 0-4.05-1.817-4.05-4.05v-16.2c0-2.233 1.817-4.05 4.05-4.05h19.238c.558 0 1.012.454 1.012 1.013V4.05H7.088c-.56 0-1.013.453-1.013 1.013 0 .559.453 1.012 1.013 1.012h22.275c.558 0 1.012.454 1.012 1.013V24.3z"/>
</svg>
