<svg xmlns="http://www.w3.org/2000/svg" width="33" height="29" viewBox="0 0 33 29">
    <path fill="#FFF" fill-rule="evenodd" d="M31.167 14.222H12.833C11.821 14.222 11 15.018 11 16v10.667c0 .982.82 1.777 1.833 1.777h18.334c1.012 0 1.833-.795 1.833-1.777V16c0-.982-.82-1.778-1.833-1.778zm0 12.445H12.833V16h18.334v10.667zm-9.89-1.823c1.57.2 3.154-.266 4.345-1.278 1.192-1.013 1.876-2.474 1.878-4.01v-1.334c0-.245-.205-.444-.458-.444h-.917c-.253 0-.458.199-.458.444v1.334c-.001 1.004-.44 1.961-1.208 2.635-.768.674-1.794 1.002-2.825.903-1.904-.18-3.3-1.84-3.3-3.696v-1.176c0-.245-.206-.444-.459-.444h-.917c-.253 0-.458.199-.458.444v1.148c0 2.71 2.005 5.13 4.776 5.474zM1.832 10.667h22v1.777h1.834v-1.777c0-.982-.821-1.778-1.834-1.778h-5.5V5.333c0-2.945-2.462-5.333-5.5-5.333-3.037 0-5.5 2.388-5.5 5.333V8.89h-5.5C.821 8.889 0 9.685 0 10.667v14.222c0 .982.82 1.778 1.833 1.778h7.334v-1.778H1.833V10.667zm7.334-5.334c0-1.963 1.641-3.555 3.666-3.555S16.5 3.37 16.5 5.333V8.89H9.167V5.333z"/>
</svg>
