<svg xmlns="http://www.w3.org/2000/svg" width="131" height="132" viewBox="0 0 131 132">
    <defs>
        <linearGradient id="dpjdy340ra" x1="8.761%" x2="97.997%" y1="0%" y2="96.946%">
            <stop offset="0%" stop-color="#F1327F"/>
            <stop offset="50.097%" stop-color="#DB55B7"/>
            <stop offset="100%" stop-color="#9774FF"/>
        </linearGradient>
    </defs>
    <g fill="none" fill-rule="evenodd">
        <path fill="url(#dpjdy340ra)" d="M20.57 10.57h79.673c5.523 0 10 4.476 10 10v79.673c0 5.523-4.477 10-10 10H20.57c-5.523 0-10-4.477-10-10V20.57c0-5.523 4.477-10 10-10z" transform="translate(5.094 6.04) rotate(-13 60.406 60.406)"/>
        <path fill="#FFF" d="M70.51 59.947c-1.595 0-2.889 1.28-2.889 2.859 0 1.578 1.294 2.859 2.89 2.859 1.595 0 2.888-1.28 2.888-2.859 0-1.578-1.293-2.859-2.889-2.859zm7.223-14.292h-1.445v-1.43c0-2.368-1.94-4.287-4.333-4.287H44.51c-4.786 0-8.666 3.839-8.666 8.575v22.869c0 4.736 3.88 8.575 8.666 8.575h31.778c3.191 0 5.778-2.559 5.778-5.717V49.942c0-2.368-1.94-4.287-4.333-4.287zm1.444 28.585c0 1.576-1.296 2.859-2.889 2.859H44.51c-3.185 0-5.777-2.565-5.777-5.717V48.513c0-3.152 2.592-5.717 5.777-5.717h27.445c.796 0 1.444.641 1.444 1.43v1.429H45.955c-.798 0-1.445.64-1.445 1.429 0 .79.647 1.43 1.445 1.43h31.778c.796 0 1.444.64 1.444 1.428V74.24z" transform="translate(5.094 6.04)"/>
    </g>
</svg>
